<?xml version="1.0" encoding="UTF-8"?>
<svg width="193px" height="54px" viewBox="0 0 193 54" version="1.1" xmlns="http://www.w3.org/2000/svg" xmlns:xlink="http://www.w3.org/1999/xlink">
    <!-- Generator: Sketch 51.2 (57519) - http://www.bohemiancoding.com/sketch -->
    <title>Group Copy</title>
    <desc>Created with Sketch.</desc>
    <defs></defs>
    <g id="Page-1" stroke="none" stroke-width="1" fill="none" fill-rule="evenodd">
        <g id="What-we-do-" transform="translate(-621.000000, -892.000000)">
            <g id="Group-3" transform="translate(0.000000, 819.000000)">
                <g id="Group-Copy" transform="translate(621.000000, 73.000000)">
                    <g id="Logo">
                        <path d="M123.5,19 C122.12122,19 121,20.1212279 121,21.5 C121,22.8787721 122.12122,24 123.5,24 C124.87878,24 126,22.8787721 126,21.5 C126,20.1212279 124.87878,19 123.5,19" id="Fill-1" fill="#E8812C"></path>
                        <path d="M179.085507,6.67831453 L37.5481692,6.67831453 L33.4590248,6.67831453 C31.9121536,5.55442363 30.1915696,4.65392339 28.3386329,4.02815204 C26.3988399,3.37324278 24.3266942,3 22.1621774,3 C17.9572245,3 14.079017,4.35976923 10.9190983,6.63668894 C6.66037708,9.70726987 3.71966736,14.4609121 3.11994456,19.9221894 C3.04549621,20.604849 3,21.2972213 3,22.0006938 C3,27.8005258 5.6291296,32.9856866 9.76101288,36.4697484 C11.5753467,38.0015701 13.6819592,39.1934494 15.9857219,39.971848 C17.925515,40.6281447 19.9976607,41 22.1621774,41 C24.3266942,41 26.3988399,40.6281447 28.3386329,39.971848 C30.1915696,39.3460766 31.9121536,38.4469639 33.4590248,37.323073 L37.5481692,37.323073 L172.008778,37.323073 C182.4798,37.323073 191,28.8758535 191,18.4916566 C191,11.977252 185.654884,6.67831453 179.085507,6.67831453 Z M22.1621774,38.7425056 C12.8382112,38.7425056 5.27756796,31.2471245 5.27756796,22.0006938 C5.27756796,12.754263 12.8382112,5.25888195 22.1621774,5.25888195 C31.4875223,5.25888195 39.0467869,12.754263 39.0467869,22.0006938 C39.0467869,31.2471245 31.4875223,38.7425056 22.1621774,38.7425056 Z M54.7291934,30.3799248 L54.0577796,30.3799248 L49.998966,30.3799248 L49.775621,30.3799248 L49.2489678,30.3799248 L48.995292,29.9220433 L48.8877555,29.726403 L46.9617492,26.2340161 L46.9617492,29.125607 L46.9617492,29.4988498 L46.9617492,30.3799248 L46.072505,30.3799248 L45.6961272,30.3799248 L42.3073488,30.3799248 L41.930971,30.3799248 L41.0417269,30.3799248 L41.0417269,29.4988498 L41.0417269,29.125607 L41.0417269,14.879943 L41.0417269,14.5053127 L41.0417269,13.6242378 L41.930971,13.6242378 L42.3073488,13.6242378 L47.7861957,13.6242378 C48.5679033,13.6242378 49.3372029,13.7047139 50.074793,13.8628912 C50.8771808,14.0349436 51.6133922,14.3346478 52.2586112,14.7509037 C52.9520838,15.197685 53.5118251,15.792931 53.9240483,16.5199912 C54.3404076,17.2595392 54.5513446,18.1558769 54.5513446,19.1840289 C54.5513446,20.4369591 54.1928896,21.5192244 53.4856303,22.4002994 C53.1106312,22.8678935 52.6556691,23.2633366 52.1290159,23.5852412 L55.1386593,28.4706978 L55.4874636,29.0395808 L56.3132888,30.3799248 L54.7291934,30.3799248 Z M69.0798017,25.8135977 C69.0798017,28.3319458 67.0145494,30.3799248 64.4750336,30.3799248 L57.7912264,30.3799248 L57.4134699,30.3799248 L56.5256045,30.3799248 L56.5256045,29.4988498 L56.5256045,29.125607 L56.5256045,14.879943 L56.5256045,14.5053127 L56.5256045,13.6242378 L57.4134699,13.6242378 L57.7912264,13.6242378 L67.4488314,13.6242378 L67.8265879,13.6242378 L68.7144533,13.6242378 L68.7144533,14.5053127 L68.7144533,14.879943 L68.7144533,17.7756965 L68.7144533,18.1503268 L68.7144533,19.0314018 L68.3697851,19.0286267 L68.3697851,20.0984044 L68.3697851,20.4730347 L68.3697851,23.2286486 L68.3697851,23.6018914 L68.3697851,24.4829664 L68.3739211,24.9325227 L69.0798017,24.9325227 L69.0798017,25.8135977 Z M82.3453943,19.0716398 L79.5535813,19.0716398 L79.5535813,29.125607 L79.5535813,29.4988498 L79.5535813,30.3799248 L78.6643371,30.3799248 L78.2879593,30.3799248 L74.8164605,30.3799248 L74.438704,30.3799248 L73.5508386,30.3799248 L73.5508386,29.4988498 L73.5508386,29.125607 L73.5508386,19.0716398 L70.7562682,19.0716398 L70.3798904,19.0716398 L69.492025,19.0716398 L69.492025,18.1905649 L69.492025,17.8173221 L69.492025,14.879943 L69.492025,14.5053127 L69.492025,13.6242378 L70.3798904,13.6242378 L70.7562682,13.6242378 L82.3453943,13.6242378 L82.721772,13.6242378 L83.6110162,13.6242378 L83.6110162,14.5053127 L83.6110162,14.879943 L83.6110162,17.8173221 L83.6110162,18.1905649 L83.6110162,19.0716398 L82.721772,19.0716398 L82.3453943,19.0716398 Z M96.9427851,16.8543835 L96.6780798,17.1318874 L94.4653095,19.4434951 L94.1661374,19.7570745 L93.8366346,20.1011794 C94.2157697,20.287107 94.576982,20.5049476 94.9147569,20.7547011 C95.4786342,21.1737321 95.9515191,21.699602 96.3210035,22.3184358 C96.71944,22.9872202 96.922105,23.8016942 96.922105,24.7368825 C96.922105,25.7497718 96.723576,26.6544346 96.3320329,27.424508 C95.9432471,28.1904188 95.4069432,28.8342279 94.7424228,29.3351225 C94.1040972,29.8193669 93.3692644,30.180122 92.5586046,30.4090627 C91.793441,30.6282908 90.9855386,30.7406799 90.1583347,30.7406799 C88.9823266,30.7406799 87.8311345,30.5339395 86.7337108,30.1287837 C85.5976841,29.7083653 84.6339916,29.0950816 83.8674494,28.3041954 L83.6137735,28.0419542 L83.0181868,27.424508 L83.6206669,26.8153869 L83.8771001,26.5559207 L86.150532,24.2609632 L86.4455681,23.9626465 L86.9074236,23.4950524 C86.4952003,23.2702742 86.1160652,23.0010954 85.7782903,22.6916785 C85.3150561,22.268485 84.9386784,21.7509402 84.6546717,21.1487567 C84.3692864,20.5340855 84.2245257,19.8056377 84.2245257,18.9828386 C84.2245257,17.9741118 84.4451134,17.0805492 84.8793954,16.329901 C85.2985121,15.6014532 85.855496,14.9964947 86.5338032,14.5330631 C87.1831582,14.0862818 87.9207483,13.7560521 88.7300294,13.5520868 C89.4979503,13.3592215 90.2782793,13.2607076 91.0517149,13.2607076 C92.0016207,13.2607076 92.9790999,13.4341476 93.9579578,13.7740899 C94.9574958,14.1251324 95.850876,14.6523898 96.6119035,15.3405996 L96.8972889,15.5972907 L97.567324,16.2036368 L96.9427851,16.8543835 Z M113.786034,14.5053127 L113.786034,14.879943 L113.786034,29.125607 L113.786034,29.4988498 L113.786034,30.3799248 L112.89679,30.3799248 L112.520412,30.3799248 L109.051671,30.3799248 L108.673914,30.3799248 L107.78467,30.3799248 L107.78467,29.4988498 L107.78467,29.125607 L107.78467,24.423303 L104.714365,24.423303 L104.714365,29.125607 L104.714365,29.4988498 L104.714365,30.3799248 L103.8265,30.3799248 L103.448743,30.3799248 L99.9800019,30.3799248 L99.6022455,30.3799248 L98.71438,30.3799248 L98.71438,29.4988498 L98.71438,29.125607 L98.71438,14.879943 L98.71438,14.5053127 L98.71438,13.6242378 L99.6022455,13.6242378 L99.9800019,13.6242378 L103.448743,13.6242378 L103.8265,13.6242378 L104.714365,13.6242378 L104.714365,14.5053127 L104.714365,14.879943 L104.714365,19.016139 L107.78467,19.016139 L107.78467,14.879943 L107.78467,14.5053127 L107.78467,13.6242378 L108.673914,13.6242378 L109.051671,13.6242378 L112.520412,13.6242378 L112.89679,13.6242378 L113.786034,13.6242378 L113.786034,14.5053127 Z M124.640328,30.7392924 C119.780505,30.7392924 115.827849,26.8195494 115.827849,22.0006938 C115.827849,17.1818381 119.780505,13.2620952 124.640328,13.2620952 C129.50015,13.2620952 133.454185,17.1818381 133.454185,22.0006938 C133.454185,26.8195494 129.50015,30.7392924 124.640328,30.7392924 Z M146.408197,19.0716398 L143.615006,19.0716398 L143.615006,29.125607 L143.615006,29.4988498 L143.615006,30.3799248 L142.72714,30.3799248 L142.349384,30.3799248 L138.879263,30.3799248 L138.502886,30.3799248 L137.61502,30.3799248 L137.61502,29.4988498 L137.61502,29.125607 L137.61502,19.0716398 L134.823207,19.0716398 L134.445451,19.0716398 L133.557585,19.0716398 L133.557585,18.1905649 L133.557585,17.8173221 L133.557585,14.879943 L133.557585,14.5053127 L133.557585,13.6242378 L134.445451,13.6242378 L134.823207,13.6242378 L146.408197,13.6242378 L146.785954,13.6242378 L147.675198,13.6242378 L147.675198,14.5053127 L147.675198,14.879943 L147.675198,17.8173221 L147.675198,18.1905649 L147.675198,19.0716398 L146.785954,19.0716398 L146.408197,19.0716398 Z M161.005588,16.855771 L160.739504,17.1318874 L158.526734,19.4434951 L158.227562,19.7570745 L157.899438,20.0997919 C158.279951,20.287107 158.641164,20.5063351 158.978939,20.7547011 C159.541437,21.1723445 160.014322,21.6982145 160.383806,22.3184358 C160.783622,22.9886077 160.984908,23.8030818 160.984908,24.7368825 C160.984908,25.7483843 160.787758,26.6530471 160.394836,27.4258955 C160.00605,28.1904188 159.471125,28.8328404 158.806604,29.3351225 C158.169657,29.8193669 157.432067,30.180122 156.622786,30.4090627 C155.854865,30.6282908 155.046963,30.7406799 154.221138,30.7406799 C153.04513,30.7406799 151.892559,30.5339395 150.795135,30.1287837 C149.663244,29.7097528 148.699552,29.0964691 147.931631,28.3055829 L147.677955,28.0433417 L147.079611,27.427283 L147.68347,26.8153869 L147.939903,26.5559207 L150.213335,24.2609632 L150.506992,23.9626465 L150.970227,23.4950524 C150.560761,23.2702742 150.181626,23.0010954 149.841093,22.6916785 C149.37648,22.26571 149.000103,21.7467777 148.721611,21.1515317 C148.433468,20.5382481 148.288707,19.8084128 148.288707,18.9828386 C148.288707,17.9713368 148.509295,17.0777741 148.942198,16.3326761 C149.359936,15.6028408 149.918299,14.9964947 150.597985,14.5330631 C151.24734,14.0862818 151.986309,13.7560521 152.794211,13.5520868 C153.557996,13.3592215 154.339704,13.2607076 155.115897,13.2607076 C156.065802,13.2607076 157.041903,13.4341476 158.020761,13.7754774 C159.024435,14.1265199 159.917815,14.6537773 160.676085,15.3419871 L160.960092,15.5986782 L161.62737,16.2036368 L161.005588,16.855771 Z M175.332759,25.8135977 C175.332759,28.3319458 173.267507,30.3799248 170.727991,30.3799248 L164.042805,30.3799248 L163.666427,30.3799248 L162.777183,30.3799248 L162.777183,29.4988498 L162.777183,29.125607 L162.777183,14.879943 L162.777183,14.5053127 L162.777183,13.6242378 L163.666427,13.6242378 L164.042805,13.6242378 L173.703167,13.6242378 L174.079545,13.6242378 L174.968789,13.6242378 L174.968789,14.5053127 L174.968789,14.879943 L174.968789,17.7756965 L174.968789,18.1503268 L174.968789,19.0314018 L174.622742,19.0327893 L174.622742,20.0984044 L174.622742,20.4730347 L174.622742,23.2286486 L174.622742,23.6018914 L174.622742,24.4829664 L174.621364,24.9325227 L175.332759,24.9325227 L175.332759,25.8135977 Z" id="Fill-3" fill="#E8812C"></path>
                        <path d="M22,17 C19.2372788,17 17,19.2385965 17,22.0007018 C17,24.7614035 19.2372788,27 22,27 C24.7613385,27 27,24.7614035 27,22.0007018 C27,19.2385965 24.7613385,17 22,17" id="Fill-5" fill="#E8812C"></path>
                        <path d="M178.43861,3.65508955 L33.8967578,3.65508955 C32.3169,2.61077825 30.6186904,1.76348082 28.8269005,1.16141745 C26.5328038,0.389894588 24.1685218,0 21.7987351,0 C17.1843942,0 12.7599666,1.42180641 9.00574004,4.11387011 C4.02946315,7.68216334 0.796809823,13.1627311 0.136242094,19.1516773 C0.0440378486,19.9810644 0,20.7484541 0,21.5006889 C0,27.8065105 2.80190812,33.7747909 7.68873313,37.8748839 C9.77915475,39.6273429 12.1613271,40.962353 14.7705697,41.8385826 C17.0646663,42.6101054 19.4289483,43 21.7987351,43 C24.1685218,43 26.5328038,42.6101054 28.8255243,41.8385826 C30.6186904,41.2365192 32.3169,40.3905995 33.8967578,39.3449104 L171.374664,39.3449104 C183.297911,39.3449104 193,29.7766493 193,18.0164365 C193,10.0973054 186.465884,3.65508955 178.43861,3.65508955 M171.374664,36.7134664 L37.1569347,36.7134664 L33.0751767,36.7134664 C31.5310996,37.8307968 29.8136235,38.723559 27.9640339,39.3449104 C26.0277447,39.9965717 23.959342,40.3658005 21.7987351,40.3658005 C19.6381281,40.3658005 17.5697254,39.9965717 15.6334362,39.3449104 C13.3338348,38.5720099 11.2310276,37.3871712 9.41997105,35.8675467 C5.29555129,32.4067156 2.67117075,27.2595559 2.67117075,21.5006889 C2.67117075,20.8021851 2.71658478,20.1147031 2.79089865,19.4368652 C3.38953816,14.012784 6.324936,9.29409503 10.5759646,6.24520201 C13.7301755,3.98436449 17.6013776,2.63419948 21.7987351,2.63419948 C23.959342,2.63419948 26.0277447,3.00342828 27.9640339,3.65508955 C29.8136235,4.276441 31.5310996,5.16920317 33.0751767,6.28653359 L37.1569347,6.28653359 L178.43861,6.28653359 C184.996121,6.28653359 190.331582,11.548044 190.331582,18.0164365 C190.331582,28.3272885 181.826772,36.7134664 171.374664,36.7134664" id="Fill-7" fill="#1D1C1C"></path>
                        <path d="M21.5,6 C12.9531824,6 6,12.952924 6,21.5 C6,30.047076 12.9531824,37 21.5,37 C30.0468176,37 37,30.047076 37,21.5 C37,12.952924 30.0468176,6 21.5,6 M21.5,30.0897151 C16.7638136,30.0897151 12.9111733,26.2356908 12.9111733,21.5 C12.9111733,16.7629337 16.7638136,12.9102849 21.5,12.9102849 C26.2375415,12.9102849 30.0901818,16.7629337 30.0901818,21.5 C30.0901818,26.2356908 26.2375415,30.0897151 21.5,30.0897151" id="Fill-9" fill="#1D1C1C"></path>
                        <path d="M22,5 C12.6123132,5 5,12.387427 5,21.5006838 C5,30.612573 12.6123132,38 22,38 C31.3890749,38 39,30.612573 39,21.5006838 C39,12.387427 31.3890749,5 22,5 M22,36.9114417 C13.2452846,36.9114417 6.12296889,29.997182 6.12296889,21.5006838 C6.12296889,13.002818 13.2452846,6.08992582 22,6.08992582 C30.7547154,6.08992582 37.8770311,13.002818 37.8770311,21.5006838 C37.8770311,29.997182 30.7547154,36.9114417 22,36.9114417" id="Fill-11" fill="#FFFFFE"></path>
                        <path d="M21.4993295,13 C16.8124951,13 13,16.8124099 13,21.5 C13,26.186229 16.8124951,30 21.4993295,30 C26.1875049,30 30,26.186229 30,21.5 C30,16.8124099 26.1875049,13 21.4993295,13 M21.4993295,26.3495596 C18.82133,26.3495596 16.6502327,24.1786229 16.6502327,21.5 C16.6502327,18.8213771 18.82133,16.6504404 21.4993295,16.6504404 C24.17867,16.6504404 26.3497673,18.8213771 26.3497673,21.5 C26.3497673,24.1786229 24.17867,26.3495596 21.4993295,26.3495596" id="Fill-13" fill="#FFFFFE"></path>
                        <path d="M51.0774534,22.7257079 C51.8826888,22.4147696 52.5380804,21.9525264 53.029624,21.3486952 C53.6191964,20.626874 53.9174836,19.7287618 53.9174836,18.6807329 C53.9174836,17.8048306 53.741032,17.0524708 53.3937305,16.4458634 C53.0492298,15.8448084 52.5800926,15.3534148 52.0003232,14.9855636 C51.4345578,14.6260411 50.7889691,14.3678512 50.0817624,14.2179345 C49.3941614,14.0735702 48.6785522,14 47.9475385,14 L42.3823118,14 L42,14 L42,14.3734037 L42,28.6265963 L42,29 L42.3823118,29 L45.8245179,29 L46.2068297,29 L46.2068297,28.6265963 L46.2068297,23.3420322 L46.8006033,23.3420322 L49.8576969,28.8056635 L49.9683292,29 L50.1951955,29 L54.3180006,29 L55,29 L54.644296,28.4308717 L51.0774534,22.7257079 Z M49.4949908,19.4178234 C49.3745556,19.5913381 49.221911,19.7218212 49.0300549,19.8162132 C48.8199935,19.9189339 48.5777227,19.991116 48.3116449,20.0327596 C48.024561,20.0771793 47.7444792,20.0993892 47.4826026,20.0993892 L46.187224,20.0993892 L46.187224,17.525819 L47.6884628,17.525819 C47.9335344,17.525819 48.1898093,17.5452526 48.4530863,17.5813437 C48.6953571,17.6160466 48.9068189,17.6799001 49.098675,17.7756802 C49.2695249,17.8617435 49.4067651,17.9783454 49.515997,18.1365908 C49.6168265,18.280955 49.6672412,18.4836202 49.6672412,18.7418101 C49.6672412,19.0249861 49.6098244,19.2526374 49.4949908,19.4178234 Z" id="Fill-15" fill="#1D1C1C"></path>
                        <path d="M48.5098592,18.2914193 C48.3444668,18.1797086 48.162173,18.1052348 47.9533199,18.0647598 C47.7275654,18.021047 47.5054326,18 47.294165,18 L46,18 L46,21 L47.1167002,21 C47.3424547,21 47.5839034,20.9740961 47.8313883,20.9239072 C48.0607646,20.8753373 48.2696177,20.7895305 48.4507042,20.6697248 C48.6160966,20.561252 48.7476861,20.4090664 48.8515091,20.2066919 C48.950503,20.0140313 49,19.7485159 49,19.4166217 C49,19.1171074 48.9565392,18.8791149 48.8696177,18.7107393 C48.7754527,18.5277928 48.6583501,18.3901781 48.5098592,18.2914193" id="Fill-17" fill="#FFFFFE"></path>
                        <path d="M54.846258,28.0629347 L51.8901327,23.1062438 C52.4087749,22.7796456 52.8542927,22.3770288 53.2226235,21.9040245 C53.9173061,21.0101027 54.2707412,19.912057 54.2707412,18.6408579 C54.2707412,17.5977145 54.062201,16.6883074 53.6532455,15.9379762 C53.2483524,15.1989069 52.6999188,14.5963895 52.0187776,14.1430937 C51.3836779,13.7207685 50.6619121,13.4166943 49.8737925,13.2407254 C49.1479643,13.0802418 48.3923445,13 47.6245373,13 L42.2431164,13 L41.8734314,13 L41,13 L41,13.8939218 L41,14.2726068 L41,28.7259854 L41,29.1060782 L41,30 L41.8734314,30 L42.2431164,30 L45.5716349,30 L45.942674,30 L46.8147513,30 L46.8147513,29.1060782 L46.8147513,28.7259854 L46.8147513,25.7922325 L48.706509,29.3369493 L48.8121332,29.5354422 L49.0612982,30 L49.5785863,30 L49.7979597,30 L53.7845987,30 L54.4454275,30 L56,30 L55.1888598,28.6401126 L54.846258,28.0629347 Z M53.7845987,29.1060782 L49.7979597,29.1060782 L49.5785863,29.1060782 L49.472962,28.9075853 L46.5154825,23.3666777 L45.942674,23.3666777 L45.942674,28.7259854 L45.942674,29.1060782 L45.5716349,29.1060782 L42.2431164,29.1060782 L41.8734314,29.1060782 L41.8734314,28.7259854 L41.8734314,14.2726068 L41.8734314,13.8939218 L42.2431164,13.8939218 L47.6245373,13.8939218 C48.3314074,13.8939218 49.0247359,13.9685326 49.688273,14.1149387 C50.3734766,14.2669758 50.9977431,14.5288175 51.5434684,14.893425 C52.1054437,15.266479 52.5590864,15.7648228 52.8908549,16.3743789 C53.2266859,16.9895661 53.3973097,17.7511593 53.3973097,18.6408579 C53.3973097,19.7037098 53.1088742,20.6145247 52.538774,21.3465552 C52.064819,21.9589268 51.4310734,22.4277079 50.6510788,22.7430441 L54.1014715,28.5289003 L54.4454275,29.1060782 L53.7845987,29.1060782 Z" id="Fill-19" fill="#FFFFFE"></path>
                        <polygon id="Fill-21" fill="#1D1C1C" points="70.3659517 14 70 14 70 14.3734037 70 17.3120489 70 17.6868406 70.3659517 17.6868406 73.9463807 17.6868406 73.9463807 28.6252082 73.9463807 29 74.3123324 29 77.6876676 29 78.0549598 29 78.0549598 28.6252082 78.0549598 17.6868406 81.6327078 17.6868406 82 17.6868406 82 17.3120489 82 14.3734037 82 14 81.6327078 14"></polygon>
                        <path d="M83,17.6329082 L83,17.2542233 L83,14.2740146 L83,13.8939218 L83,13 L82.1182502,13 L81.7450444,13 L70.2549556,13 L69.8817498,13 L69,13 L69,13.8939218 L69,14.2740146 L69,17.2542233 L69,17.6329082 L69,18.5268301 L69.8817498,18.5268301 L70.2549556,18.5268301 L73.024607,18.5268301 L73.024607,28.7273932 L73.024607,29.1060782 L73.024607,30 L73.9063568,30 L74.2795625,30 L77.7218045,30 L78.0963773,30 L78.9767601,30 L78.9767601,29.1060782 L78.9767601,28.7273932 L78.9767601,18.5268301 L81.7450444,18.5268301 L82.1182502,18.5268301 L83,18.5268301 L83,17.6329082 Z M82.1182502,14.2740146 L82.1182502,17.2542233 L82.1182502,17.6329082 L81.7450444,17.6329082 L78.0963773,17.6329082 L78.0963773,28.7273932 L78.0963773,29.1060782 L77.7218045,29.1060782 L74.2795625,29.1060782 L73.9063568,29.1060782 L73.9063568,28.7273932 L73.9063568,17.6329082 L70.2549556,17.6329082 L69.8817498,17.6329082 L69.8817498,17.2542233 L69.8817498,14.2740146 L69.8817498,13.8939218 L70.2549556,13.8939218 L81.7450444,13.8939218 L82.1182502,13.8939218 L82.1182502,14.2740146 Z" id="Fill-23" fill="#FFFFFE"></path>
                        <path d="M93.3733257,14.4717931 C92.4941042,14.1582061 91.619004,14 90.7713795,14 C90.0748712,14 89.3687464,14.0904035 88.6763595,14.2683853 C87.974356,14.4491922 87.3341729,14.7401783 86.7750429,15.1342809 C86.2090441,15.5312086 85.7419576,16.0482034 85.390269,16.6725523 C85.0358329,17.2997263 84.8544934,18.0582679 84.8544934,18.9284012 C84.8544934,19.6346782 84.9726388,20.2505518 85.2020607,20.7576587 C85.4342301,21.2605279 85.7419576,21.6927695 86.1183744,22.0444955 C86.4865484,22.3891586 86.9137951,22.6773197 87.3891242,22.9005032 C87.8438466,23.1123863 88.3095592,23.2960184 88.7752719,23.4485742 C89.2464797,23.5983049 89.6641099,23.7381478 90.0336577,23.8652777 C90.3757298,23.9867573 90.6642244,24.1195374 90.8867773,24.2593802 C91.0928449,24.3893352 91.25083,24.5305906 91.3566113,24.6817339 C91.4445335,24.8046261 91.4871208,24.9600071 91.4871208,25.1563521 C91.4871208,25.3795356 91.4486548,25.5674053 91.3703492,25.7114858 C91.2892959,25.8640417 91.1890097,25.9812837 91.0585003,26.0674495 C90.9170006,26.1635031 90.7466514,26.2341308 90.5488266,26.2793326 C90.3372639,26.3273594 90.1119634,26.3527854 89.8811677,26.3527854 C89.3783629,26.3527854 88.8604465,26.2185927 88.3425301,25.9530326 C87.8204923,25.6860599 87.3959931,25.349872 87.0786491,24.9557694 L86.8148827,24.6252317 L86.5195192,24.9289309 L84.2555238,27.2667079 L84,27.5294429 L84.2527762,27.7964156 C84.9231826,28.5041052 85.7721809,29.0550013 86.7791643,29.4349784 C87.7724098,29.8107178 88.8164854,30 89.8811677,30 C90.6230109,30 91.3442473,29.8982961 92.0283915,29.699126 C92.730395,29.4957182 93.365083,29.1793061 93.9104751,28.7555399 C94.4668575,28.327536 94.9160847,27.7766399 95.2416714,27.1183897 C95.5700057,26.4601395 95.7362335,25.6747594 95.7362335,24.7862629 C95.7362335,23.9966452 95.5768746,23.3214443 95.2595306,22.7804361 C94.9518031,22.2521409 94.558901,21.8043613 94.0904408,21.4498102 C93.6274757,21.1009093 93.1123068,20.8183985 92.5600458,20.6093405 C92.0462507,20.4158206 91.5310819,20.2321886 91.0310246,20.0640946 C90.6971952,19.955328 90.3990841,19.8493864 90.1339439,19.7505076 C89.8894104,19.6572791 89.676474,19.5555752 89.504751,19.445396 C89.3577562,19.3535799 89.250601,19.2490509 89.1805381,19.1374592 C89.1159702,19.0357553 89.085747,18.897325 89.085747,18.7249934 C89.085747,18.5173479 89.1255867,18.3534917 89.20664,18.2376622 C89.3082999,18.0935817 89.4250716,17.9805774 89.5720664,17.8915865 C89.7245564,17.7983579 89.8894104,17.7376181 90.0748712,17.7065419 C90.2987979,17.6684029 90.5076131,17.6500397 90.710933,17.6500397 C91.1010876,17.6500397 91.5132227,17.7517436 91.9377218,17.9523263 C92.3594734,18.1514964 92.7042931,18.4212943 92.9625644,18.7532445 L93.231826,19.0979077 L93.5313108,18.780083 L95.7362335,16.4253553 L96,16.1442571 L95.7170006,15.8829346 C95.0452204,15.2628233 94.2580424,14.7882052 93.3733257,14.4717931" id="Fill-25" fill="#1D1C1C"></path>
                        <path d="M97.0163002,15.0227814 C96.2316149,14.3534688 95.3104625,13.840689 94.2798522,13.500635 C93.2705648,13.1686776 92.262699,13 91.2832638,13 C90.4857847,13 89.6797763,13.0958089 88.8894049,13.2833783 C88.0549659,13.4817431 87.2944466,13.8029052 86.6234837,14.2374186 C85.9255118,14.6881251 85.351213,15.2764725 84.9190675,15.9849182 C84.4712851,16.7149548 84.24384,17.5839816 84.24384,18.5650103 C84.24384,19.3652167 84.3931008,20.0736625 84.6873578,20.6714558 C84.9801933,21.2571043 85.3682714,21.7604382 85.845906,22.1720114 C86.1941812,22.4729322 86.5851024,22.7347198 87.0087187,22.9533259 L86.5325057,23.4080806 L86.2297195,23.6982061 L83.8856141,25.9301476 L83.6212092,26.1824893 L83,26.7762343 L83.6141016,27.375377 L83.8756634,27.6304175 C84.6660349,28.3995872 85.6596854,28.9973805 86.8296058,29.4049055 C87.9625663,29.7989363 89.1495451,30 90.3621114,30 C91.2136088,30 92.0466262,29.8906969 92.8369977,29.6774885 C93.6714367,29.4548341 94.4305345,29.1039848 95.0887036,28.633037 C95.7738817,28.1458962 96.3268575,27.519765 96.7277293,26.7748849 C97.1314443,26.0259565 97.3361448,25.1461343 97.3361448,24.1610573 C97.3361448,23.2515479 97.1271797,22.459438 96.7163571,21.8090173 C96.3353867,21.2071757 95.8478014,20.6957454 95.266395,20.2882204 C94.9166983,20.0466741 94.5456785,19.8334656 94.1533359,19.6526433 L94.4945034,19.317987 L94.8029757,19.0130179 L97.0845337,16.7648833 L97.3574678,16.4963486 L98,15.862121 L97.3105572,15.2724242 L97.0163002,15.0227814 Z M96.419257,16.1751865 L94.137699,18.4233212 L93.8292267,18.7282902 L93.5506065,18.3990316 C93.2819371,18.0805683 92.9251327,17.822829 92.4887225,17.6325607 C92.0494693,17.440943 91.6230099,17.3437847 91.2192949,17.3437847 C91.0089083,17.3437847 90.794257,17.3613272 90.5611259,17.3977615 C90.3692191,17.4274488 90.1986353,17.4854739 90.0408453,17.5745356 C89.890163,17.6595491 89.7679113,17.7688522 89.6641395,17.9051437 C89.5802691,18.0157962 89.5376232,18.1723289 89.5376232,18.3706938 C89.5376232,18.5366725 89.5703184,18.6675663 89.6357089,18.7647246 C89.708207,18.8726782 89.820508,18.9711859 89.9711903,19.0602477 C90.1488817,19.164153 90.3692191,19.2613113 90.6222517,19.3503731 C90.8980288,19.4461819 91.2050796,19.5460391 91.5519333,19.6499444 C92.0693707,19.8105255 92.6010235,19.9859502 93.1326763,20.1721702 C93.7041319,20.370535 94.2372062,20.6404191 94.7162623,20.9750754 C95.2010045,21.31378 95.6089841,21.7401969 95.9259856,22.2448801 C96.2543594,22.7630576 96.4206785,23.4067312 96.4206785,24.1610573 C96.4206785,25.0111923 96.2472517,25.7601207 95.9089272,26.3903 C95.5706027,27.0177806 95.1057619,27.5440546 94.5300417,27.952929 C93.9656937,28.3577552 93.3103677,28.6613748 92.5825436,28.854342 C91.8760425,29.0459597 91.1283169,29.143118 90.3621114,29.143118 C89.259003,29.143118 88.1786391,28.9609462 87.1508719,28.6020003 C86.1103108,28.2390062 85.2303829,27.7127322 84.5366755,27.0366725 L84.2751137,26.7829814 L84.5395186,26.5306398 L86.883624,24.2986982 L87.1878317,24.0072234 L87.4621873,24.3229878 C87.7891395,24.6994761 88.2283927,25.0206382 88.7685747,25.2756787 C89.304492,25.5293697 89.8404094,25.6575647 90.3621114,25.6575647 C90.5995072,25.6575647 90.8326384,25.6346245 91.0515542,25.5887442 C91.2576763,25.5455628 91.4339462,25.4767423 91.5803639,25.3849817 C91.7139879,25.3026671 91.8191812,25.1920146 91.9030516,25.0449278 C91.9826573,24.9072869 92.0224602,24.7291634 92.0224602,24.5146055 C92.0224602,24.3283855 91.9783927,24.1785998 91.8888362,24.0612002 C91.7779568,23.9181616 91.6144807,23.7818701 91.4012509,23.6590729 C91.1723844,23.5241308 90.8738628,23.3972853 90.5184799,23.2825845 C90.1375095,23.1597873 89.7039424,23.0275441 89.2177786,22.8845055 C88.7358795,22.7387681 88.2525588,22.561994 87.7820318,22.3595809 C87.2916035,22.1463724 86.8495072,21.8724401 86.4671152,21.541832 C86.0776156,21.2071757 85.7606141,20.7929036 85.5203753,20.3125099 C85.281558,19.8280679 85.1607278,19.2397206 85.1607278,18.5650103 C85.1607278,17.7351167 85.3469484,17.0091284 85.7137036,16.4099857 C86.0776156,15.8148913 86.5609363,15.3196539 87.1480288,14.9418162 C87.7265921,14.5653278 88.3890258,14.2859978 89.1140068,14.1132719 C89.8318802,13.943245 90.5611259,13.856882 91.2832638,13.856882 C92.1589272,13.856882 93.0644428,14.0093666 93.9742229,14.3075885 C94.8896892,14.6098587 95.7056482,15.063264 96.3993556,15.6556596 L96.6921911,15.9053024 L96.419257,16.1751865 Z" id="Fill-27" fill="#FFFFFE"></path>
                        <polygon id="Fill-29" fill="#1D1C1C" points="108.239112 14 107.869764 14 107.869764 14.3734037 107.869764 19.3942254 103.130236 19.3942254 103.130236 14.3734037 103.130236 14 102.760888 14 99.3693488 14 99 14 99 14.3734037 99 28.6252082 99 29 99.3693488 29 102.760888 29 103.130236 29 103.130236 28.6252082 103.130236 23.0394225 107.869764 23.0394225 107.869764 28.6252082 107.869764 29 108.239112 29 111.630651 29 112 29 112 28.6252082 112 14.3734037 112 14 111.630651 14"></polygon>
                        <path d="M111.740395,13 L108.288145,13 L107.912184,13 L107.027168,13 L107.027168,13.8939218 L107.027168,14.2726068 L107.027168,18.47052 L103.97146,18.47052 L103.97146,14.2726068 L103.97146,13.8939218 L103.97146,13 L103.087816,13 L102.711855,13 L99.2596048,13 L98.8836443,13 L98,13 L98,13.8939218 L98,14.2726068 L98,28.7273932 L98,29.1060782 L98,30 L98.8836443,30 L99.2596048,30 L102.711855,30 L103.087816,30 L103.97146,30 L103.97146,29.1060782 L103.97146,28.7273932 L103.97146,23.9565253 L107.027168,23.9565253 L107.027168,28.7273932 L107.027168,29.1060782 L107.027168,30 L107.912184,30 L108.288145,30 L111.740395,30 L112.114984,30 L113,30 L113,29.1060782 L113,28.7273932 L113,14.2726068 L113,13.8939218 L113,13 L112.114984,13 L111.740395,13 Z M112.114984,14.2726068 L112.114984,28.7273932 L112.114984,29.1060782 L111.740395,29.1060782 L108.288145,29.1060782 L107.912184,29.1060782 L107.912184,28.7273932 L107.912184,23.0626035 L103.087816,23.0626035 L103.087816,28.7273932 L103.087816,29.1060782 L102.711855,29.1060782 L99.2596048,29.1060782 L98.8836443,29.1060782 L98.8836443,28.7273932 L98.8836443,14.2726068 L98.8836443,13.8939218 L99.2596048,13.8939218 L102.711855,13.8939218 L103.087816,13.8939218 L103.087816,14.2726068 L103.087816,19.3644419 L107.912184,19.3644419 L107.912184,14.2726068 L107.912184,13.8939218 L108.288145,13.8939218 L111.740395,13.8939218 L112.114984,13.8939218 L112.114984,14.2726068 Z" id="Fill-31" fill="#FFFFFE"></path>
                        <polygon id="Fill-33" fill="#1D1C1C" points="134.367333 14 134 14 134 14.3734037 134 17.3120489 134 17.6868406 134.367333 17.6868406 137.945481 17.6868406 137.945481 28.6252082 137.945481 29 138.311474 29 141.685845 29 142.053178 29 142.053178 28.6252082 142.053178 17.6868406 145.632667 17.6868406 146 17.6868406 146 17.3120489 146 14.3734037 146 14 145.632667 14"></polygon>
                        <path d="M147,17.6329082 L147,17.2542233 L147,14.2740146 L147,13.8939218 L147,13 L146.118164,13 L145.744922,13 L134.255078,13 L133.880469,13 L133,13 L133,13.8939218 L133,14.2740146 L133,17.2542233 L133,17.6329082 L133,18.5268301 L133.880469,18.5268301 L134.255078,18.5268301 L137.023633,18.5268301 L137.023633,28.7273932 L137.023633,29.1060782 L137.023633,30 L137.905469,30 L138.278711,30 L141.719922,30 L142.093164,30 L142.975,30 L142.975,29.1060782 L142.975,28.7273932 L142.975,18.5268301 L145.744922,18.5268301 L146.118164,18.5268301 L147,18.5268301 L147,17.6329082 Z M146.118164,14.2740146 L146.118164,17.2542233 L146.118164,17.6329082 L145.744922,17.6329082 L142.093164,17.6329082 L142.093164,28.7273932 L142.093164,29.1060782 L141.719922,29.1060782 L138.278711,29.1060782 L137.905469,29.1060782 L137.905469,28.7273932 L137.905469,17.6329082 L134.255078,17.6329082 L133.880469,17.6329082 L133.880469,17.2542233 L133.880469,14.2740146 L133.880469,13.8939218 L134.255078,13.8939218 L145.744922,13.8939218 L146.118164,13.8939218 L146.118164,14.2740146 Z" id="Fill-35" fill="#FFFFFE"></path>
                        <path d="M157.374399,14.4717931 C156.495077,14.1582061 155.619876,14 154.773529,14 C154.074193,14 153.369361,14.0904035 152.678269,14.2683853 C151.976185,14.4491922 151.335929,14.7401783 150.776735,15.1342809 C150.207923,15.5312086 149.740783,16.049616 149.390428,16.6725523 C149.035951,17.2983138 148.855965,18.0568553 148.855965,18.9284012 C148.855965,19.6360908 148.971376,20.2519643 149.204946,20.7576587 C149.43302,21.2591154 149.740783,21.6913569 150.117243,22.0444955 C150.489581,22.3905712 150.916877,22.6787322 151.390886,22.9005032 C151.848409,23.1137989 152.312801,23.2974309 152.774445,23.4485742 C153.24708,23.5983049 153.666132,23.7381478 154.032975,23.8652777 C154.375086,23.9853448 154.663613,24.1181248 154.887566,24.2593802 C155.090909,24.3879227 155.250286,24.5291781 155.357454,24.6817339 C155.44676,24.8060387 155.489352,24.9628322 155.489352,25.1563521 C155.489352,25.3781231 155.449508,25.5659928 155.371193,25.7114858 C155.290131,25.8654542 155.189833,25.9798711 155.060682,26.0660369 C154.917793,26.1635031 154.747424,26.2355434 154.549576,26.2793326 C154.337989,26.3273594 154.111289,26.3527854 153.881841,26.3527854 C153.377605,26.3527854 152.859629,26.2185927 152.343027,25.9530326 C151.822304,25.6874724 151.397756,25.3512845 151.077628,24.9557694 L150.813831,24.6266443 L150.519808,24.9289309 L148.254179,27.2667079 L148,27.5308555 L148.251431,27.7964156 C148.924662,28.5041052 149.773758,29.0564139 150.778109,29.4349784 C151.771468,29.8107178 152.817037,30 153.881841,30 C154.622395,30 155.345088,29.8982961 156.029311,29.699126 C156.732768,29.4957182 157.367529,29.1793061 157.912984,28.7555399 C158.468056,28.3261234 158.915961,27.7752273 159.242959,27.1198022 C159.57133,26.4601395 159.737577,25.6747594 159.737577,24.7862629 C159.737577,23.9966452 159.576826,23.3228569 159.26082,22.7804361 C158.953057,22.2521409 158.56011,21.8043613 158.09297,21.4498102 C157.631326,21.1023219 157.117472,20.8198111 156.5624,20.6107531 C156.062285,20.4214708 155.549805,20.2378388 155.033204,20.0640946 C154.696588,19.9539154 154.398443,19.8493864 154.134646,19.7505076 C153.892833,19.6586916 153.679872,19.5555752 153.504007,19.445396 C153.359744,19.3535799 153.249828,19.2490509 153.178383,19.1346341 C153.116556,19.0357553 153.084955,18.897325 153.084955,18.7249934 C153.084955,18.5173479 153.126174,18.3534917 153.207236,18.2376622 C153.307534,18.0935817 153.427067,17.9805774 153.57133,17.8915865 C153.722464,17.7997705 153.891459,17.7376181 154.075567,17.7065419 C154.300893,17.6684029 154.508358,17.6500397 154.711701,17.6500397 C155.101901,17.6500397 155.514083,17.7517436 155.937257,17.9523263 C156.359057,18.1500839 156.702542,18.4198817 156.963591,18.7532445 L157.232883,19.0979077 L157.531028,18.780083 L159.737577,16.4253553 L160,16.1442571 L159.716968,15.8829346 C159.049233,15.2642359 158.260591,14.7896177 157.374399,14.4717931" id="Fill-37" fill="#1D1C1C"></path>
                        <path d="M160.019236,15.0241308 C159.236047,14.3548182 158.314982,13.8420384 157.281626,13.500635 C156.272434,13.1686776 155.266085,13 154.285322,13 C153.486497,13 152.680565,13.0958089 151.89169,13.2833783 C151.060172,13.4817431 150.296882,13.8029052 149.628826,14.2387681 C148.928077,14.6894745 148.352412,15.2778219 147.921728,15.9876171 C147.473988,16.7136053 147.247986,17.5812827 147.247986,18.5650103 C147.247986,19.3679155 147.397233,20.0777107 147.692884,20.6741546 C147.980006,21.2544055 148.368047,21.7577393 148.847058,22.1720114 C149.199564,22.4742816 149.589027,22.7360692 150.011182,22.9533259 L149.535014,23.4080806 L149.230835,23.6982061 L146.888373,25.9301476 L146.623993,26.1824893 L146,26.7775837 L146.616886,27.3767265 L146.879845,27.6317669 C147.670141,28.4009367 148.663698,28.9973805 149.832086,29.4049055 C150.963517,29.8002858 152.151805,30 153.362835,30 C154.215673,30 155.048612,29.8920464 155.84033,29.6774885 C156.67469,29.4561835 157.433716,29.1039848 158.090401,28.6343864 C158.775514,28.1458962 159.327016,27.519765 159.72785,26.7762343 C160.132948,26.0259565 160.337629,25.1461343 160.337629,24.1610573 C160.337629,23.2528973 160.128684,22.4607874 159.716479,21.8090173 C159.336966,21.2071757 158.849427,20.6957454 158.269497,20.2895698 C157.921255,20.0466741 157.548849,19.8334656 157.155122,19.6512939 L157.494836,19.317987 L157.803279,19.0130179 L160.08462,16.7648833 L160.357529,16.4963486 L161,15.8634704 L160.310623,15.2737736 L160.019236,15.0241308 Z M159.420828,16.1751865 L157.138065,18.4233212 L156.829622,18.7282902 L156.55245,18.3990316 C156.282384,18.0792189 155.925614,17.822829 155.489245,17.6325607 C155.052876,17.440943 154.626457,17.3437847 154.221359,17.3437847 C154.010992,17.3437847 153.796361,17.3613272 153.563252,17.3977615 C153.372785,17.4274488 153.197953,17.4881727 153.043021,17.5758851 C152.892353,17.6608986 152.768691,17.7675028 152.664929,17.9064931 C152.582488,18.0157962 152.539846,18.1723289 152.539846,18.3706938 C152.539846,18.5366725 152.572539,18.6675663 152.636501,18.7633751 C152.708993,18.8713288 152.824126,18.9711859 152.971951,19.0588982 C153.15389,19.1655025 153.374206,19.2640102 153.624372,19.3503731 C153.898702,19.4461819 154.207145,19.5460391 154.555387,19.6499444 C155.088411,19.8172726 155.620013,19.9926973 156.13598,20.1721702 C156.710225,20.3732338 157.241827,20.643118 157.719416,20.9750754 C158.202691,21.31378 158.609211,21.7401969 158.927604,22.2448801 C159.254525,22.7630576 159.420828,23.4080806 159.420828,24.1610573 C159.420828,25.0098428 159.248839,25.7601207 158.909125,26.3903 C158.570833,27.0177806 158.107458,27.5440546 157.533213,27.952929 C156.968919,28.3577552 156.312233,28.6613748 155.584478,28.854342 C154.876623,29.0459597 154.128968,29.143118 153.362835,29.143118 C152.261253,29.143118 151.180991,28.9609462 150.1519,28.6020003 C149.11428,28.2403556 148.234436,27.7140816 147.539373,27.0380219 L147.277836,26.7829814 L147.542215,26.5306398 L149.884677,24.2986982 L150.188856,24.0085728 L150.463186,24.3229878 C150.794371,24.7021749 151.233583,25.0219876 151.770871,25.2770281 C152.305316,25.5293697 152.841183,25.6575647 153.362835,25.6575647 C153.60163,25.6575647 153.834739,25.6346245 154.055055,25.5887442 C154.258315,25.5455628 154.43599,25.4780918 154.582394,25.3849817 C154.717426,25.3026671 154.821188,25.1920146 154.903629,25.0462772 C154.984649,24.9059375 155.025869,24.7278139 155.025869,24.5146055 C155.025869,24.3297349 154.981806,24.1812986 154.890837,24.0612002 C154.778546,23.9168122 154.615086,23.7818701 154.403298,23.6590729 C154.17161,23.5227814 153.874538,23.3959359 153.519189,23.2825845 C153.139676,23.1597873 152.70615,23.0275441 152.218611,22.8845055 C151.741022,22.7401175 151.259168,22.5633434 150.785843,22.3595809 C150.296882,22.1477219 149.854828,21.8724401 149.469629,21.5431815 C149.080167,21.2058263 148.761774,20.7915542 148.524401,20.3138593 C148.284185,19.8307668 148.163366,19.2424194 148.163366,18.5650103 C148.163366,17.7337673 148.35099,17.007779 148.717711,16.4113351 C149.080167,15.8148913 149.56202,15.3210033 150.1519,14.9418162 C150.730408,14.5653278 151.391358,14.2873472 152.117692,14.1146214 C152.832654,13.943245 153.563252,13.856882 154.285322,13.856882 C155.160902,13.856882 156.066332,14.0093666 156.976026,14.3089379 C157.892827,14.6112081 158.708708,15.0646134 159.399507,15.657009 L159.693736,15.9066518 L159.420828,16.1751865 Z" id="Fill-39" fill="#FFFFFE"></path>
                        <path d="M167.18726,23.1004997 L172.88987,23.1004997 L173.27539,23.1004997 L173.27539,22.7270961 L173.27539,19.9689062 L173.27539,19.5955025 L172.88987,19.5955025 L167.18726,19.5955025 L167.18726,17.6451971 L173.243029,17.6451971 L173.627142,17.6451971 L173.627142,17.2717934 L173.627142,14.3734037 L173.627142,14 L173.243029,14 L163.384114,14 L163,14 L163,14.3734037 L163,28.6252082 L163,29 L163.384114,29 L170.206702,29 C172.30174,29 174,27.349528 174,25.3131594 L167.18726,25.3131594 L167.18726,23.1004997 Z" id="Fill-41" fill="#1D1C1C"></path>
                        <path d="M174.264851,24.0170586 L174.264851,23.1231368 L174.264851,22.7444518 L174.264851,19.9472507 L174.264851,19.5685658 L174.264851,18.4860053 L174.62172,18.4845975 L174.62172,17.5906757 L174.62172,17.2119907 L174.62172,14.2726068 L174.62172,13.8939218 L174.62172,13 L173.702427,13 L173.312726,13 L163.310421,13 L162.92072,13 L162,13 L162,13.8939218 L162,14.2726068 L162,28.7259854 L162,29.1060782 L162,30 L162.92072,30 L163.310421,30 L170.232239,30 C172.861645,30 175,27.9207519 175,25.3670918 L175,24.4731699 L174.263424,24.4731699 L174.264851,24.0170586 Z M170.232239,29.1060782 L163.310421,29.1060782 L162.92072,29.1060782 L162.92072,28.7259854 L162.92072,14.2726068 L162.92072,13.8939218 L163.310421,13.8939218 L173.312726,13.8939218 L173.702427,13.8939218 L173.702427,14.2726068 L173.702427,17.2119907 L173.702427,17.5906757 L173.312726,17.5906757 L167.168881,17.5906757 L167.168881,19.5685658 L172.954431,19.5685658 L173.344131,19.5685658 L173.344131,19.9472507 L173.344131,22.7444518 L173.344131,23.1231368 L172.954431,23.1231368 L167.168881,23.1231368 L167.168881,25.3670918 L174.080707,25.3670918 C174.080707,27.4322623 172.357747,29.1060782 170.232239,29.1060782 Z" id="Fill-43" fill="#FFFFFE"></path>
                        <path d="M61.1872602,23.1004997 L66.8898695,23.1004997 L67.2753901,23.1004997 L67.2753901,22.7270961 L67.2753901,19.9689062 L67.2753901,19.5955025 L66.8898695,19.5955025 L61.1872602,19.5955025 L61.1872602,17.6451971 L67.2416219,17.6451971 L67.6271425,17.6451971 L67.6271425,17.2717934 L67.6271425,14.3734037 L67.6271425,14 L67.2416219,14 L57.3841136,14 L57,14 L57,14.3734037 L57,28.6252082 L57,29 L57.3841136,29 L64.2067025,29 C66.3017396,29 68,27.349528 68,25.3131594 L61.1872602,25.3131594 L61.1872602,23.1004997 Z" id="Fill-45" fill="#1D1C1C"></path>
                        <path d="M68.2648512,24.0170586 L68.2648512,23.1231368 L68.2648512,22.7444518 L68.2648512,19.9472507 L68.2648512,19.5685658 L68.2648512,18.481782 L68.6217196,18.4845975 L68.6217196,17.5906757 L68.6217196,17.2119907 L68.6217196,14.2726068 L68.6217196,13.8939218 L68.6217196,13 L67.7009992,13 L67.311299,13 L57.3104206,13 L56.9207203,13 L56,13 L56,13.8939218 L56,14.2726068 L56,28.7259854 L56,29.1060782 L56,30 L56.9207203,30 L57.3104206,30 L64.2322389,30 C66.8616449,30 69,27.9207519 69,25.3670918 L69,24.4731699 L68.2677062,24.4731699 L68.2648512,24.0170586 Z M64.2322389,29.1060782 L57.3104206,29.1060782 L56.9207203,29.1060782 L56.9207203,28.7259854 L56.9207203,14.2726068 L56.9207203,13.8939218 L57.3104206,13.8939218 L67.311299,13.8939218 L67.7009992,13.8939218 L67.7009992,14.2726068 L67.7009992,17.2119907 L67.7009992,17.5906757 L67.311299,17.5906757 L61.1688811,17.5906757 L61.1688811,19.5685658 L66.9544307,19.5685658 L67.3441309,19.5685658 L67.3441309,19.9472507 L67.3441309,22.7444518 L67.3441309,23.1231368 L66.9544307,23.1231368 L61.1688811,23.1231368 L61.1688811,25.3670918 L68.0807071,25.3670918 C68.0807071,27.4322623 66.3577468,29.1060782 64.2322389,29.1060782 Z" id="Fill-47" fill="#FFFFFE"></path>
                        <path d="M124,14 C119.582463,14 116,17.5811407 116,22 C116,26.4188593 119.582463,30 124,30 C128.418928,30 132,26.4188593 132,22 C132,17.5811407 128.418928,14 124,14 M124,25.6122197 C122.004175,25.6122197 120.388309,23.9947025 120.388309,22 C120.388309,20.0052975 122.004175,18.3877803 124,18.3877803 C125.995825,18.3877803 127.611691,20.0052975 127.611691,22 C127.611691,23.9947025 125.995825,25.6122197 124,25.6122197" id="Fill-49" fill="#1D1C1C"></path>
                        <path d="M123.5,18 C121.565896,18 120,19.5672663 120,21.5 C120,23.4327337 121.565896,25 123.5,25 C125.434104,25 127,23.4327337 127,21.5 C127,19.5672663 125.434104,18 123.5,18 M123.5,24.1308174 C122.048748,24.1308174 120.868593,22.950919 120.868593,21.5 C120.868593,20.049081 122.048748,18.8691826 123.5,18.8691826 C124.951252,18.8691826 126.131407,20.049081 126.131407,21.5 C126.131407,22.950919 124.951252,24.1308174 123.5,24.1308174" id="Fill-51" fill="#FFFFFE"></path>
                        <path d="M123.999296,13 C119.036449,13 115,16.8127183 115,21.5 C115,26.1872817 119.036449,30 123.999296,30 C128.962143,30 133,26.1872817 133,21.5 C133,16.8127183 128.962143,13 123.999296,13 M123.999296,29.1429819 C119.530622,29.1429819 115.906688,25.7216577 115.906688,21.5 C115.906688,17.2783423 119.530622,13.8570181 123.999296,13.8570181 C128.469378,13.8570181 132.091905,17.2783423 132.091905,21.5 C132.091905,25.7216577 128.469378,29.1429819 123.999296,29.1429819" id="Fill-53" fill="#FFFFFE"></path>
                    </g>
                    <text id="CONTract-mining" font-family="Calibri" font-size="11" font-weight="normal" letter-spacing="1.61000001" fill="#4A4A4A">
                        <tspan x="41.1129882" y="53">CONTRACT MINING</tspan>
                    </text>
                </g>
            </g>
        </g>
    </g>
</svg>