<?xml version="1.0" encoding="UTF-8"?>
<svg width="47px" height="52px" viewBox="0 0 47 52" version="1.1" xmlns="http://www.w3.org/2000/svg" xmlns:xlink="http://www.w3.org/1999/xlink">
    <!-- Generator: Sketch 51.2 (57519) - http://www.bohemiancoding.com/sketch -->
    <title>fist</title>
    <desc>Created with Sketch.</desc>
    <defs></defs>
    <g id="Page-1" stroke="none" stroke-width="1" fill="none" fill-rule="evenodd">
        <g id="What-we-stand-for" transform="translate(-542.000000, -1239.000000)" fill="#1D1E1C" fill-rule="nonzero">
            <g id="fist" transform="translate(542.000000, 1239.000000)">
                <path d="M46.9932706,16.3464051 C46.9960415,16.3170471 46.9968332,16.2876892 46.997625,16.2587281 C46.9984166,16.2420654 47,16.2257996 47,16.2095336 C47,16.2027893 46.9996042,16.1960449 46.9996042,16.1893006 C46.9996042,16.1785889 46.9992083,16.1678772 46.9988124,16.1575623 C46.9750615,13.1658325 44.8996226,10.6569214 42.1156133,9.97494509 L42.1156133,8.05081174 C42.1156133,4.51119998 39.2429337,1.63174436 35.7115605,1.63174436 C34.0972863,1.63174436 32.6219553,2.2347717 31.494576,3.22540278 C30.3877809,1.30007932 28.3143213,0 25.9423913,0 C23.5704612,0 21.4970016,1.30007932 20.3902066,3.22540278 C19.2628273,2.234375 17.7874962,1.63174436 16.1736178,1.63174436 C13.3333979,1.63174436 10.9202995,3.49478147 10.0842654,6.06518555 C9.04199368,5.32925412 7.77329614,4.89523318 6.4044487,4.89523318 C2.87307545,4.89523318 0,7.7746887 0,11.3139039 L0,16.2095336 C0,16.9506226 0.127463481,17.6623535 0.359431324,18.3252869 L3.31246842,34.5899658 C3.31405181,34.5986938 3.31563521,34.6078186 3.31761443,34.6165467 C3.99649631,38.0149231 6.48005587,41.0891723 9.76877342,42.6963196 L9.76877342,46.3974 C9.76877342,49.4867248 12.2768757,52 15.3593555,52 L31.6410403,52 C34.7235202,52 37.2312267,49.4867248 37.2312267,46.3974 L37.2312267,42.6963196 C40.5211316,41.0891723 43.0046913,38.0141297 43.6827814,34.61615 C43.6847606,34.6074219 43.686344,34.5986938 43.6879274,34.5899658 L46.9758532,16.4820862 C46.9786242,16.4654236 46.9798117,16.448761 46.9821868,16.4317016 C46.9865411,16.403534 46.9908954,16.3753662 46.9932706,16.3464051 Z M35.7115605,4.67861936 C37.5665111,4.67861936 39.0754893,6.19134527 39.0754893,8.05041504 L39.0754893,9.79046636 L32.34684,9.79046636 L32.34684,8.05081174 C32.34684,6.19134527 33.856214,4.67861936 35.7115605,4.67861936 Z M22.5780665,6.41867068 C22.5780665,4.5596008 24.0874406,3.046875 25.9423913,3.046875 C27.797342,3.046875 29.306716,4.5596008 29.306716,6.41867068 L29.306716,9.79046636 L25.9423913,9.79046636 C24.7089243,9.79046636 23.5566064,10.1427613 22.5780665,10.7505493 L22.5780665,6.41867068 Z M12.8092932,8.05081174 C12.8092932,6.19134527 14.3182714,4.67861936 16.173222,4.67861936 C18.0285685,4.67861936 19.5379426,6.19134527 19.5379426,8.05081174 L19.5379426,16.2095336 C19.5379426,18.0686035 18.0285685,19.5813293 16.173222,19.5813293 C14.3182714,19.5813293 12.8092932,18.0686035 12.8092932,16.2095336 L12.8092932,8.05081174 Z M6.4044487,7.94210818 C8.25979512,7.94210818 9.76916925,9.45483398 9.76916925,11.3139039 L9.76916925,16.2095336 C9.76916925,18.0686035 8.25979512,19.5813293 6.4044487,19.5813293 C5.01026679,19.5813293 3.81123876,18.7267761 3.30178046,17.5123902 L3.04012398,16.0718689 L3.04012398,11.3139039 C3.04012398,9.45483398 4.549498,7.94210818 6.4044487,7.94210818 Z M40.6992639,34.0305786 C40.1593252,36.7092895 37.9390054,39.2170105 35.1700384,40.2738953 C34.5806186,40.4988403 34.1911027,41.0653687 34.1911027,41.6973572 L34.1911027,46.3970031 C34.1911027,47.8065796 33.0470977,48.953125 31.6410403,48.953125 L15.3593555,48.953125 C13.9532982,48.953125 12.8088974,47.8065796 12.8088974,46.3970031 L12.8088974,41.6973572 C12.8088974,41.0653687 12.4193815,40.4988403 11.8299616,40.2738953 C9.06178621,39.2174072 6.84146652,36.7092895 6.30073609,34.0305786 L4.1564195,22.2187805 C4.85628137,22.482605 5.6135414,22.6282043 6.4044487,22.6282043 C8.36034094,22.6282043 10.1131624,21.7438965 11.2892312,20.3545532 C12.4649041,21.7438965 14.2177256,22.6282043 16.1736178,22.6282043 C18.1295102,22.6282043 19.8823317,21.7438965 21.0580046,20.3545532 C22.2336776,21.7438965 23.986499,22.6282043 25.9423913,22.6282043 L35.7115605,22.6282043 C36.5507614,22.6282043 37.2316225,21.9462281 37.2316225,21.1047668 C37.2316225,20.2633057 36.5507614,19.5813293 35.7115605,19.5813293 L25.9423913,19.5813293 C24.0874406,19.5813293 22.5780665,18.0686035 22.5780665,16.2095336 C22.5780665,14.3500672 24.0874406,12.8377381 25.9423913,12.8377381 L40.5959471,12.8377381 C42.4105211,12.8377381 43.8933733,14.2850037 43.9571051,16.0885315 L40.6992639,34.0305786 Z" id="Shape"></path>
            </g>
        </g>
    </g>
</svg>