<?xml version="1.0" encoding="UTF-8"?>
<svg width="59px" height="49px" viewBox="0 0 59 49" version="1.1" xmlns="http://www.w3.org/2000/svg" xmlns:xlink="http://www.w3.org/1999/xlink">
    <!-- Generator: Sketch 51.2 (57519) - http://www.bohemiancoding.com/sketch -->
    <title>respect</title>
    <desc>Created with Sketch.</desc>
    <defs></defs>
    <g id="Page-1" stroke="none" stroke-width="1" fill="none" fill-rule="evenodd">
        <g id="What-we-stand-for" transform="translate(-1180.000000, -1239.000000)" fill="#000000">
            <g id="respect" transform="translate(1180.000000, 1239.000000)">
                <g id="Shape">
                    <path d="M53.9020312,5.18755869 C53.686543,4.97246479 53.3903906,4.85042488 53.087209,4.85042488 C52.7829902,4.85042488 52.4868379,4.97246479 52.2712344,5.18755869 C52.0570137,5.40138732 51.93475,5.69711268 51.93475,6.00077465 C51.93475,6.30328638 52.0570137,6.60016197 52.2712344,6.81410563 C52.4867227,7.0280493 52.782875,7.15112441 53.087209,7.15112441 C53.3902754,7.15112441 53.686543,7.02816432 53.9020312,6.81410563 C54.1163672,6.60016197 54.2385156,6.30340141 54.2385156,6.00077465 C54.2385156,5.69711268 54.1163672,5.40138732 53.9020312,5.18755869 Z" fill-rule="nonzero"></path>
                    <path d="M27.4339629,32.2785775 C27.2185898,32.0634836 26.9223223,31.9414437 26.6191406,31.9414437 C26.3149219,31.9414437 26.0186543,32.0634836 25.803166,32.2785775 C25.5889453,32.4924061 25.4666816,32.7881315 25.4666816,33.0917934 C25.4666816,33.3943052 25.5889453,33.6910657 25.803166,33.9051244 C26.0186543,34.1190681 26.3148066,34.2421432 26.6191406,34.2421432 C26.922207,34.2421432 27.2184746,34.1191831 27.4339629,33.9051244 C27.6482988,33.6911808 27.7704473,33.3944202 27.7704473,33.0917934 C27.7705625,32.7881315 27.6484141,32.4924061 27.4339629,32.2785775 Z" fill-rule="nonzero"></path>
                    <path d="M56.6933535,9.00783333 C56.3787637,8.45549061 55.6749121,8.26248122 55.1219023,8.57649531 C54.5686621,8.89050939 54.3751836,9.59284272 54.6898887,10.1450704 C58.113041,16.1536667 57.0796191,23.7682207 52.176627,28.6621244 L51.3028047,29.5343474 C51.0916953,28.9814296 50.7646602,28.4627887 50.3190488,28.018108 L38.4780254,16.1988709 C39.2524004,15.8186033 39.9678906,15.3112347 40.5960332,14.6842418 L42.8670723,12.4172441 C43.3170625,11.9680775 43.3170625,11.2396338 42.8670723,10.7904671 C42.4169668,10.3413005 41.687418,10.3413005 41.2371973,10.7904671 L38.9661582,13.0574648 C37.8992031,14.1223521 36.4807832,14.7088568 34.9720195,14.7088568 L30.4321309,14.7088568 C30.1265293,14.7088568 29.8334883,14.8300915 29.6171934,15.0457606 L26.1417246,18.5148685 C25.1096855,19.5451338 23.430375,19.5451338 22.3983359,18.5148685 C21.3661816,17.4847183 21.3661816,15.8084812 22.3983359,14.778331 L30.3329141,6.85838967 C35.1818613,2.01820188 42.7519531,0.953774648 48.7412598,4.26990141 C49.2978418,4.57781925 49.9993887,4.37756338 50.3081016,3.82188498 C50.6168145,3.2663216 50.4158457,2.56605869 49.8592637,2.2579108 C46.5557246,0.429152582 42.6635684,-0.302741784 38.8990918,0.197725352 C35.3761465,0.665985915 32.151543,2.13840141 29.5082969,4.47475822 C26.2611074,1.60135681 22.1273047,0.0300211268 17.7507031,0.0300211268 C13.0092695,0.0300211268 8.55177344,1.87304225 5.1990293,5.21953521 C1.84628516,8.56602817 0,13.0157113 0,17.7483521 C0,22.481108 1.84640039,26.930446 5.1990293,30.277054 L5.63334766,30.7105775 C5.70894141,30.7859178 5.79283203,30.8475704 5.88144727,30.8976056 C5.95853906,31.8927887 6.37626367,32.8663474 7.13715625,33.6257324 C7.98401367,34.4709249 9.09579492,34.8932911 10.2079219,34.8932911 C10.2656543,34.8932911 10.323502,34.8914507 10.3812344,34.8891502 C10.3789297,34.9473521 10.3769707,35.005554 10.3769707,35.0641009 C10.3769707,36.2219272 10.8286895,37.3105094 11.6489277,38.1292465 C12.4957852,38.974439 13.6075664,39.3969202 14.7196934,39.3968052 C14.7774258,39.3968052 14.8352734,39.3949648 14.8930059,39.3926643 C14.8907012,39.4508662 14.8887422,39.5090681 14.8887422,39.567615 C14.8887422,40.7254413 15.3404609,41.8140235 16.1608145,42.6327606 C17.0075566,43.477838 18.1195684,43.9003192 19.2315801,43.9003192 C19.2900039,43.9003192 19.3484277,43.8984789 19.4068516,43.8961784 C19.3600664,45.0637817 19.7814785,46.2469131 20.6725859,47.1365047 C21.4929395,47.9552418 22.5835176,48.4061338 23.7433516,48.4061338 C24.903416,48.4061338 25.9939941,47.9552418 26.8141172,47.1365047 L28.424748,45.5287066 L30.6002578,47.7000047 C31.4204961,48.5188568 32.5110742,48.9697488 33.6710234,48.9697488 C34.8309727,48.9697488 35.9215508,48.5188568 36.7417891,47.7001197 C37.6436133,46.799946 38.0649102,45.5989859 38.0061406,44.4176948 C38.0785078,44.4212606 38.1511055,44.423331 38.2235879,44.423331 C39.3357148,44.423331 40.447957,44.0008498 41.294584,43.1556573 C42.1852305,42.2666408 42.6066426,41.0844296 42.5603184,39.9174014 C42.618627,39.9197019 42.6769355,39.9216573 42.7355898,39.9216573 C43.8955391,39.9216573 44.9861172,39.4707653 45.8063555,38.6520282 C46.697002,37.7630117 47.1184141,36.5808005 47.0720898,35.4137723 C47.1303984,35.4160728 47.188707,35.4180282 47.2473613,35.4180282 C48.4073105,35.4180282 49.4978887,34.9671362 50.318127,34.1483991 C50.7346992,33.7325892 51.0483672,33.2522512 51.2599375,32.7395915 C51.3720605,32.6850704 51.4775,32.6124906 51.5707246,32.5195516 L53.8055801,30.2887864 C59.4406562,24.6651737 60.6278008,15.9139577 56.6933535,9.00783333 Z M10.2080371,32.594662 C9.66366992,32.594662 9.15191406,32.3831338 8.76691602,31.9988404 C8.3820332,31.614662 8.17000195,31.1038427 8.17000195,30.5604718 C8.17000195,30.017216 8.38191797,29.5062817 8.76691602,29.1221033 L10.7528652,27.1397887 C11.137748,26.7554953 11.6496191,26.5439671 12.1939863,26.5439671 C12.7382383,26.5439671 13.2501094,26.7554953 13.6349922,27.1397887 C14.4296484,27.9329906 14.4296484,29.223439 13.6349922,30.0165258 L11.649043,31.9989554 C11.2641602,32.3830188 10.7525195,32.594662 10.2080371,32.594662 Z M13.2790332,36.5025845 C12.8940352,36.1184061 12.6821191,35.6074718 12.6821191,35.064216 C12.6821191,34.5208451 12.8940352,34.0100258 13.2790332,33.6258474 L15.2650977,31.6434178 C15.2650977,31.6434178 15.2650977,31.6434178 15.2650977,31.6433028 C15.6499805,31.2591244 16.1617363,31.0474812 16.7061035,31.0474812 C17.2503555,31.0474812 17.7622266,31.2590094 18.1471094,31.6433028 C18.9417656,32.4365047 18.9417656,33.7269531 18.1471094,34.5200399 L16.1611602,36.5024695 C15.3663887,37.2955563 14.0732285,37.2955563 13.2790332,36.5025845 Z M17.7908047,41.0060986 C17.4058066,40.6219202 17.1938906,40.1109859 17.1938906,39.56773 C17.1938906,39.0243592 17.4058066,38.5135399 17.7908047,38.1293615 L19.7768691,36.1469319 C19.7768691,36.1469319 19.7768691,36.1469319 19.7768691,36.1468169 C20.161752,35.7626385 20.6735078,35.5509953 21.217875,35.5509953 C21.7622422,35.5509953 22.273998,35.7625235 22.6588809,36.1468169 C23.4535371,36.9401338 23.4535371,38.2305822 22.6588809,39.023669 L20.6728164,41.0060986 C19.8782754,41.7993005 18.5854609,41.7993005 17.7908047,41.0060986 Z M27.1707676,43.5274131 L25.1847031,45.5099577 C24.7998203,45.8941362 24.2880645,46.1057793 23.7436973,46.1057793 C23.1994453,46.1057793 22.6875742,45.8942512 22.3026914,45.5099577 C21.5080352,44.7166408 21.5080352,43.4261925 22.3026914,42.6331056 L24.2887559,40.6506761 C24.2887559,40.6506761 24.2887559,40.6506761 24.2887559,40.650561 C24.6736387,40.2663826 25.1853945,40.0547394 25.7297617,40.0547394 C26.2740137,40.0547394 26.7858848,40.2662676 27.1707676,40.650561 C27.5557656,41.0347394 27.7676816,41.5456737 27.7676816,42.0889296 C27.7677969,42.6325305 27.5557656,43.1432347 27.1707676,43.5274131 Z M48.6891738,32.5216221 C48.304291,32.9059155 47.7924199,33.1174437 47.248168,33.1174437 C46.7038008,33.1174437 46.1920449,32.9059155 45.8071621,32.5216221 L41.0103008,27.7335399 C41.0100703,27.7333099 41.0099551,27.7331948 41.0097246,27.7329648 L36.4982988,23.2297958 C36.0481934,22.7806291 35.3186445,22.7806291 34.8684238,23.2297958 C34.4184336,23.6789624 34.4184336,24.4074061 34.8684238,24.8565728 L44.1772871,34.148169 C44.9719434,34.9414859 44.9719434,36.2319343 44.1772871,37.0250211 C43.7924043,37.4093146 43.2805332,37.6208427 42.7362813,37.6208427 C42.1919141,37.6208427 41.6801582,37.4093146 41.2952754,37.0250211 L31.9864121,27.7333099 C31.5363066,27.2842582 30.8067578,27.2842582 30.3565371,27.7333099 C29.9065469,28.1824765 29.9065469,28.9109202 30.3565371,29.3602019 L34.867502,33.8627958 C34.8678477,33.8631408 34.8681934,33.8636009 34.8685391,33.863946 L39.6655156,38.6519131 C40.4601719,39.44523 40.4601719,40.7357934 39.6656309,41.5288803 C38.8708594,42.3220822 37.5778145,42.3220822 36.7835039,41.5288803 L31.9865273,36.7406831 C31.8977969,36.65223 31.7981191,36.5818357 31.6919883,36.5282347 L30.3238105,35.162561 C29.8737051,34.7135094 29.1441563,34.7135094 28.6939355,35.162561 C28.2439453,35.6117277 28.2439453,36.3401714 28.6939355,36.7894531 L35.1127207,43.1962606 C35.907377,43.9895775 35.907377,45.2800258 35.1127207,46.0731127 C34.7278379,46.4574061 34.2159668,46.6689343 33.6717148,46.6689343 C33.1273477,46.6689343 32.6155918,46.4574061 32.230709,46.0731127 L29.7882012,43.6351901 C29.9743047,43.1478357 30.0727148,42.6259742 30.0727148,42.0888146 C30.0727148,40.9309883 29.6209961,39.8424061 28.8007578,39.023669 C27.9804043,38.2049319 26.8898262,37.7540399 25.7299922,37.7540399 C25.6713379,37.7540399 25.6130293,37.7559953 25.5547207,37.7582958 C25.6009297,36.5912676 25.1796328,35.4090563 24.2889863,34.5200399 C23.4686328,33.7013028 22.3780547,33.2504108 21.2182207,33.2504108 C21.1595664,33.2504108 21.1012578,33.2523662 21.0429492,33.2546667 C21.0892734,32.0876385 20.6678613,30.9054272 19.7772148,30.0164108 C18.9568613,29.1976737 17.8662832,28.7467817 16.7064492,28.7467817 C16.6477949,28.7467817 16.5894863,28.7487371 16.5311777,28.7510376 C16.577502,27.5840094 16.1560898,26.4017981 15.2654434,25.5127817 C13.5721895,23.8226268 10.8168203,23.8227418 9.12356641,25.5127817 L7.13761719,27.4950962 C6.88709766,27.7451573 6.6747207,28.0187981 6.49818164,28.3084272 C3.79121094,25.4384765 2.30537891,21.7074601 2.30537891,17.7481221 C2.30537891,13.6299366 3.91197656,9.75813146 6.82948047,6.84619718 C9.74675391,3.93426291 13.6257734,2.33049061 17.7513945,2.33049061 C21.5006602,2.33049061 25.0459609,3.65510094 27.8509961,6.08232629 L20.7690371,13.1513239 C19.8337949,14.0849695 19.3186973,15.3261878 19.3186973,16.6464272 C19.3186973,17.9667817 19.8337949,19.208 20.7690371,20.1416455 C21.7344707,21.1051972 23.002625,21.5870305 24.2706641,21.5870305 C25.5387031,21.5870305 26.8068574,21.1053122 27.772291,20.1416455 L30.9103535,17.0093263 L34.9727109,17.0093263 C35.3081582,17.0093263 35.639918,16.9864366 35.9676445,16.9458333 L48.6898652,29.6445399 C49.4837148,30.4380869 49.4837148,31.7286502 48.6891738,32.5216221 Z" fill-rule="nonzero"></path>
                </g>
            </g>
        </g>
    </g>
</svg>