<?xml version="1.0" encoding="UTF-8"?>
<svg width="57px" height="47px" viewBox="0 0 57 47" version="1.1" xmlns="http://www.w3.org/2000/svg" xmlns:xlink="http://www.w3.org/1999/xlink">
    <!-- Generator: Sketch 51.2 (57519) - http://www.bohemiancoding.com/sketch -->
    <title>engineer</title>
    <desc>Created with Sketch.</desc>
    <defs></defs>
    <g id="Page-1" stroke="none" stroke-width="1" fill="none" fill-rule="evenodd">
        <g id="Who-we-are" transform="translate(-211.000000, -1824.000000)" fill="#000000">
            <g id="Group-8" transform="translate(0.000000, 1346.000000)">
                <g id="Group-6" transform="translate(0.000000, 88.000000)">
                    <g id="Group-4" transform="translate(93.000000, 58.000000)">
                        <g id="Honesty" transform="translate(20.000000, 332.000000)">
                            <g id="engineer" transform="translate(98.000000, 0.000000)">
                                <g id="Shape">
                                    <path d="M50.8686905,28.1406716 L43.0965957,26.3494276 C44.5390777,24.8977663 45.4327469,22.8922565 45.4327469,20.6808063 L45.4327469,16.918668 L46.4373093,16.918668 C47.0522232,16.918668 47.5505905,16.4165237 47.5505905,15.7969496 L47.5505905,11.504186 C47.5505905,11.0121196 47.2353057,10.5945425 46.7969512,10.4438116 L46.7969512,10.1568094 C46.7969512,5.34481285 43.1857452,1.36884696 38.5508423,0.83033453 C38.4234238,0.352289678 37.9915924,0 37.4766998,0 C36.9622422,0 36.5304107,0.352289678 36.4025574,0.83033453 C32.6082688,1.27113474 29.502388,4.0158394 28.5,7.63732479 C27.4971772,4.0158394 24.3912964,1.27113474 20.5970078,0.83033453 C20.4695893,0.352289678 20.0377578,0 19.5228653,0 C19.0084076,0 18.5765762,0.352289678 18.4491577,0.83033453 C13.8142548,1.36884696 10.2026138,5.34481285 10.2026138,10.1568094 L10.2026138,10.4438116 C9.76469427,10.5945425 9.44940946,11.0121196 9.44940946,11.504186 L9.44940946,15.7969496 C9.44940946,16.4165237 9.94777682,16.918668 10.5626907,16.918668 L11.5672531,16.918668 L11.5672531,20.6808063 C11.5672531,22.8922565 12.4609223,24.8977663 13.9034043,26.3494276 L6.13087458,28.1406716 C2.52140814,28.9727587 -5.68434189e-14,32.1595783 -5.68434189e-14,35.8910446 L-5.68434189e-14,45.8782816 C-5.68434189e-14,46.4978558 0.498367254,47 1.11328125,47 L55.8867187,47 C56.5016327,47 57,46.4978558 57,45.8782816 L57,35.8910446 C57,32.1595783 54.4785919,28.9727587 50.8686905,28.1406716 Z M10.1308594,40.0453461 C9.51594538,40.0453461 9.01757812,40.5474902 9.01757812,41.1670644 L9.01757812,44.7565632 L6.78840632,44.7565632 L6.78840632,30.2907778 L15.3145752,28.3255798 L15.3145752,30.8582096 C15.3145752,32.8080717 16.6278992,34.4538429 18.410019,34.9472236 L18.410019,44.7565632 L11.2441406,44.7565632 L11.2441406,41.1670644 C11.2441406,40.5474902 10.7457734,40.0453461 10.1308594,40.0453461 Z M11.675972,14.6752312 L11.675972,12.6259043 L27.3706284,12.6259043 L27.3706284,14.6752312 L11.675972,14.6752312 Z M45.324028,14.6752312 L29.6293716,14.6752312 L29.6293716,12.6259043 L45.324028,12.6259043 L45.324028,14.6752312 Z M27.4789124,16.918668 L28.4834747,16.918668 C28.4891281,16.918668 28.4943466,16.9177916 28.5,16.9177916 C28.5052185,16.9182298 28.5108719,16.918668 28.5160904,16.918668 L29.5206528,16.918668 L29.5206528,20.6808063 C29.5206528,22.8922565 30.4143218,24.8977663 31.8568039,26.3494276 L28.4995652,27.123238 L25.1427612,26.3494276 C26.5852432,24.8977663 27.4789124,22.8922565 27.4789124,20.6808063 L27.4789124,16.918668 Z M38.3664551,32.6437575 C37.7558899,31.2578218 36.760025,30.0773885 35.4945374,29.2435486 L35.4945374,28.4447624 C36.1285859,28.6095148 36.7926407,28.6967109 37.4766998,28.6967109 C38.160759,28.6967109 38.8252487,28.6090767 39.4588623,28.4447624 L39.4588623,30.8582096 C39.4588623,31.6245712 39.0213775,32.3111855 38.3664551,32.6437575 Z M19.5233002,32.8553942 C18.430458,32.8553942 17.5411377,31.9593339 17.5411377,30.8582096 L17.5411377,28.4447624 C18.1747513,28.6090767 18.839241,28.6967109 19.5233002,28.6967109 C20.2073593,28.6967109 20.8714141,28.6090767 21.5054626,28.4447624 L21.5054626,30.8582096 C21.5054626,31.9593339 20.6161423,32.8553942 19.5233002,32.8553942 Z M20.6365815,34.9472236 C22.4182663,34.4538429 23.7320251,32.8080717 23.7320251,30.8582096 L23.7320251,28.3255798 L32.2581939,30.2907778 L32.2581939,44.7565632 L20.6365815,44.7565632 L20.6365815,34.9472236 Z M34.4847564,31.2678998 C35.9211502,32.3125 36.819603,34.0042791 36.819603,35.8910446 L36.819603,44.7565632 L34.4847564,44.7565632 L34.4847564,31.2678998 Z M38.9757156,34.8205922 C40.5791016,34.2036471 41.6854248,32.6323649 41.6854248,30.8582096 L41.6854248,28.3255798 L50.2115937,30.2907778 L50.2115937,44.7565632 L39.0461655,44.7565632 L39.0461655,35.8910446 C39.0461655,35.5282388 39.0218125,35.1711292 38.9757156,34.8205922 Z M43.2061844,20.6808063 C43.2061844,23.8636822 40.6360703,26.4532742 37.4771347,26.4532742 C34.3177642,26.4532742 31.7476501,23.8636822 31.7476501,20.6808063 L31.7476501,16.918668 L43.2061844,16.918668 L43.2061844,20.6808063 Z M30.3830108,10.1572475 C30.3830108,6.59754435 32.9792175,3.63813584 36.3638535,3.09830887 L36.3638535,7.34725537 C36.3638535,7.96682956 36.8622207,8.46897375 37.4771347,8.46897375 C38.0916138,8.46897375 38.590416,7.96682956 38.590416,7.34725537 L38.590416,3.09830887 C41.974617,3.63813584 44.5708237,6.59754435 44.5708237,10.1572475 L44.5708237,10.3829057 L30.3830108,10.3829057 L30.3830108,10.1572475 Z M12.4291763,10.1572475 C12.4291763,6.59754435 15.025383,3.63813584 18.410019,3.09830887 L18.410019,7.34725537 C18.410019,7.96682956 18.9083862,8.46897375 19.5233002,8.46897375 C20.1382141,8.46897375 20.6365815,7.96682956 20.6365815,7.34725537 L20.6365815,3.09830887 C24.0207825,3.63813584 26.6169892,6.59754435 26.6169892,10.1572475 L26.6169892,10.3829057 L12.4291763,10.3829057 L12.4291763,10.1572475 Z M13.7938156,20.6808063 L13.7938156,16.918668 L25.2523499,16.918668 L25.2523499,20.6808063 C25.2523499,23.8636822 22.6822358,26.4532742 19.5233002,26.4532742 C16.3639297,26.4532742 13.7938156,23.8636822 13.7938156,20.6808063 Z M2.2265625,35.8910446 C2.2265625,34.0042791 3.12545016,32.3125 4.56184382,31.2678998 L4.56184382,44.7565632 L2.2265625,44.7565632 L2.2265625,35.8910446 Z M54.7734375,44.7565632 L52.4381562,44.7565632 L52.4381562,31.2678998 C53.8745498,32.3125 54.7734375,34.0042791 54.7734375,35.8910446 L54.7734375,44.7565632 Z" fill-rule="nonzero"></path>
                                    <path d="M42.8939438,37.7252293 L47.2927094,37.7252293 C47.9076233,37.7252293 48.4059907,37.2230851 48.4059907,36.6035109 C48.4059907,35.984375 47.9076233,35.4817926 47.2927094,35.4817926 L42.8939438,35.4817926 C42.2790298,35.4817926 41.7806626,35.984375 41.7806626,36.6035109 C41.7806626,37.2230851 42.2790298,37.7252293 42.8939438,37.7252293 Z" fill-rule="nonzero"></path>
                                    <path d="M10.917984,36.2236166 C10.7109833,36.0150469 10.4235306,35.8949881 10.1308594,35.8949881 C9.8381882,35.8949881 9.55073542,36.0150469 9.3437348,36.2236166 C9.13673395,36.432186 9.01757812,36.7218172 9.01757812,37.0167064 C9.01757812,37.3115957 9.13673395,37.6012269 9.3437348,37.8097963 C9.55073542,38.018366 9.8381882,38.1384248 10.1308594,38.1384248 C10.4235306,38.1384248 10.7109833,38.018366 10.917984,37.8097963 C11.1249848,37.6012269 11.2441406,37.3115957 11.2441406,37.0167064 C11.2441406,36.7218172 11.1249848,36.432186 10.917984,36.2236166 Z" fill-rule="nonzero"></path>
                                    <path d="M29.3388748,35.4817926 L24.9401093,35.4817926 C24.3256302,35.4817926 23.8268281,35.984375 23.8268281,36.6035109 C23.8268281,37.2230851 24.3256302,37.7252293 24.9401093,37.7252293 L29.3388748,37.7252293 C29.9537888,37.7252293 30.452156,37.2230851 30.452156,36.6035109 C30.452156,35.984375 29.9537888,35.4817926 29.3388748,35.4817926 Z" fill-rule="nonzero"></path>
                                </g>
                            </g>
                        </g>
                    </g>
                </g>
            </g>
        </g>
    </g>
</svg>