<?xml version="1.0" encoding="UTF-8"?>
<svg width="39px" height="52px" viewBox="0 0 39 52" version="1.1" xmlns="http://www.w3.org/2000/svg" xmlns:xlink="http://www.w3.org/1999/xlink">
    <!-- Generator: Sketch 51.2 (57519) - http://www.bohemiancoding.com/sketch -->
    <title>medal</title>
    <desc>Created with Sketch.</desc>
    <defs></defs>
    <g id="Page-1" stroke="none" stroke-width="1" fill="none" fill-rule="evenodd">
        <g id="Who-we-are" transform="translate(-533.000000, -1823.000000)" fill="#000000">
            <g id="Group-8" transform="translate(0.000000, 1346.000000)">
                <g id="Group-6" transform="translate(0.000000, 88.000000)">
                    <g id="Group-4-Copy" transform="translate(412.000000, 58.000000)">
                        <g id="integrity" transform="translate(5.000000, 331.000000)">
                            <g id="medal" transform="translate(116.000000, 0.000000)">
                                <g id="Shape">
                                    <path d="M27.0184687,13.9945837 L22.6273125,13.3519485 L20.6634631,9.34448927 C20.4334517,8.87515021 19.9677784,8.58357082 19.4480369,8.58357082 C18.9282955,8.58357082 18.4626222,8.87515021 18.2326108,9.34448927 L16.2687614,13.3519485 L11.8776051,13.9945837 C11.3632926,14.0699056 10.9440426,14.4258712 10.7835,14.9236652 C10.6229574,15.4214592 10.75425,15.9576395 11.1264119,16.3230901 L14.3039148,19.442309 L13.5538295,23.847133 C13.4659687,24.3630043 13.6724915,24.8746352 14.093071,25.1822833 C14.3307273,25.3561373 14.6084915,25.4444034 14.8884716,25.4444034 C15.1037472,25.4444034 15.3203523,25.3920687 15.5204489,25.2861717 L19.4479261,23.206618 L23.3752926,25.2860601 C23.8353153,25.5297682 24.3823125,25.4899313 24.8027812,25.1822833 C25.2233608,24.8746352 25.4298835,24.3630043 25.3420227,23.847133 L24.5919375,19.442309 L27.7694403,16.3229785 C28.1414915,15.9576395 28.2728949,15.4214592 28.1123523,14.9236652 C27.9518097,14.4258712 27.5327812,14.0699056 27.0184688,13.9945837 Z M23.1193551,18.5508326 C22.9234688,18.7432103 22.8341676,19.0201717 22.8804801,19.2916652 L23.599321,23.513485 L19.8348239,21.5203004 C19.592625,21.3921974 19.3035597,21.3921974 19.0614716,21.5203004 L15.2969744,23.513485 L16.0158153,19.2916652 C16.0621278,19.0201717 15.9727159,18.7432103 15.7769403,18.5508326 L12.7313949,15.5610558 L16.9401818,14.9450901 C17.2108551,14.905588 17.4448551,14.7343004 17.5658437,14.4872446 L19.4480369,10.6461631 L21.3302301,14.4872446 C21.4513295,14.7343004 21.6852187,14.9054764 21.955892,14.9450901 L26.164679,15.5610558 L23.1193551,18.5508326 Z" fill-rule="nonzero"></path>
                                    <path d="M19.4481477,3.57081545 C11.6587841,3.57081545 5.32172727,9.95320172 5.32172727,17.7982833 C5.32172727,25.6433648 11.6587841,32.0257511 19.4481477,32.0257511 C27.2375114,32.0257511 33.5745682,25.6433648 33.5745682,17.7982833 C33.5745682,9.95320172 27.2374006,3.57081545 19.4481477,3.57081545 Z M19.4481477,30.3519313 C12.5752841,30.3519313 6.98365909,24.720309 6.98365909,17.7982833 C6.98365909,10.8762575 12.5752841,5.24463519 19.4481477,5.24463519 C26.3210114,5.24463519 31.9126364,10.8762575 31.9126364,17.7982833 C31.9126364,24.720309 26.3210114,30.3519313 19.4481477,30.3519313 Z" fill-rule="nonzero"></path>
                                    <path d="M38.7599063,46.0877339 L32.1913977,30.1164807 C35.2420398,26.9164721 37.1200227,22.5742489 37.1200227,17.7982833 C37.1200227,7.98434335 29.1923864,0 19.4481477,0 C9.70390909,0 1.77627273,7.98434335 1.77627273,17.7982833 C1.77627273,22.5742489 3.65414489,26.9164721 6.70489773,30.1164807 L0.136278409,46.0877339 C-0.121542614,46.714412 0.000443181818,47.415073 0.454704545,47.9159914 C0.908855114,48.4169099 1.59024716,48.6030386 2.23385795,48.4009528 L6.37517045,47.1012876 L8.39120455,50.9697082 C8.69168182,51.5462833 9.26781818,51.8955536 9.90865909,51.8955536 C9.93547159,51.8955536 9.96239489,51.8949957 9.98942898,51.8936567 C10.6622898,51.86297 11.2405313,51.4544464 11.4982415,50.8276567 L17.7947472,35.5180086 C18.339196,35.5691159 18.8905142,35.5965665 19.4480369,35.5965665 C20.0055597,35.5965665 20.5568778,35.5692275 21.1013267,35.5180086 L27.3978324,50.8276567 C27.6555426,51.4544464 28.2337841,51.8628584 28.9066449,51.8936567 C28.933679,51.8949957 28.9606023,51.8955536 28.9874148,51.8955536 C29.6281449,51.8955536 30.2045028,51.5461717 30.5048693,50.9697082 L32.5209034,47.1012876 L36.6623267,48.4008412 C37.3059375,48.6030386 37.9872188,48.4166867 38.4413693,47.9158798 C38.8957415,47.4149614 39.0178381,46.714412 38.7599063,46.0877339 Z M9.96294886,50.1871416 C9.95652273,50.2025408 9.94943182,50.2199485 9.91419886,50.2216223 C9.87940909,50.2239657 9.87032386,50.2065579 9.86267898,50.1918283 L7.52478409,45.7058798 C7.33831534,45.3480172 6.9250483,45.1753906 6.54180682,45.295794 L1.73948864,46.8029013 C1.72364489,46.8076996 1.70558523,46.8133906 1.681875,46.7871674 C1.65816477,46.7609442 1.66536648,46.7435365 1.67157102,46.7282489 L7.99865625,31.3441717 C8.945625,32.1573133 9.97812784,32.8720343 11.0812074,33.4717082 L7.3782017,42.4756309 C7.20248011,42.9026781 7.40379545,43.3922146 7.82792045,43.5690815 C7.93184659,43.6126009 8.03953977,43.6330215 8.14557102,43.6330215 C8.47164205,43.6330215 8.78098295,43.438412 8.91360511,43.1161459 L12.5813778,34.1979227 C13.6991932,34.674515 14.8758409,35.0370644 16.0963636,35.2740773 L9.96294886,50.1871416 Z M3.43820455,17.7982833 C3.43820455,8.90717597 10.6201875,1.67381974 19.4481477,1.67381974 C28.276108,1.67381974 35.4580909,8.90717597 35.4580909,17.7982833 C35.4580909,26.6893906 28.2759972,33.9227468 19.4481477,33.9227468 C10.6202983,33.9227468 3.43820455,26.6893906 3.43820455,17.7982833 Z M37.2143097,46.7871674 C37.1903778,46.813279 37.1726506,46.8076996 37.1568068,46.8029013 L32.354267,45.295794 C31.9709148,45.175279 31.5577585,45.3480172 31.3712898,45.7058798 L29.0333949,50.1918283 C29.02575,50.2065579 29.014892,50.2229614 28.981875,50.2216223 C28.946642,50.2199485 28.9394403,50.2025408 28.933125,50.1871416 L22.799821,35.2740773 C24.0203437,35.0370644 25.1969915,34.674515 26.3148068,34.1979227 L29.9825795,43.1161459 C30.1150909,43.4385236 30.4244318,43.6330215 30.7506136,43.6330215 C30.8565341,43.6330215 30.9643381,43.6123777 31.0682642,43.5690815 C31.4922784,43.3922146 31.6937045,42.9026781 31.517983,42.4756309 L27.8149773,33.4717082 C28.9180568,32.8720343 29.9505597,32.1572017 30.8975284,31.3441717 L37.2246136,46.7282489 C37.230929,46.7436481 37.2380199,46.7610558 37.2143097,46.7871674 Z" fill-rule="nonzero"></path>
                                </g>
                            </g>
                        </g>
                    </g>
                </g>
            </g>
        </g>
    </g>
</svg>