<?xml version="1.0" encoding="UTF-8"?>
<svg width="51px" height="51px" viewBox="0 0 51 51" version="1.1" xmlns="http://www.w3.org/2000/svg" xmlns:xlink="http://www.w3.org/1999/xlink">
    <!-- Generator: Sketch 51.2 (57519) - http://www.bohemiancoding.com/sketch -->
    <title>Investing</title>
    <desc>Created with Sketch.</desc>
    <defs></defs>
    <g id="Page-1" stroke="none" stroke-width="1" fill="none" fill-rule="evenodd">
        <g id="What-we-stand-for" transform="translate(-200.000000, -1240.000000)" fill="#000000" fill-rule="nonzero">
            <g id="Investing" transform="translate(200.000000, 1240.000000)">
                <g id="money">
                    <path d="M19.5234375,5.9765625 C18.9735937,5.9765625 18.5273438,6.4228125 18.5273438,6.97265625 C18.5273438,7.5225 18.9735937,7.96875 19.5234375,7.96875 C20.0732813,7.96875 20.5195312,7.5225 20.5195312,6.97265625 C20.5195312,6.4228125 20.0732813,5.9765625 19.5234375,5.9765625 Z" id="Shape"></path>
                    <path d="M47.015625,14.5429688 C44.8186406,14.5429688 43.03125,16.3303594 43.03125,18.5273438 L43.03125,25.6265039 C41.7080391,25.2857402 40.2478652,25.6376602 39.2181035,26.6673223 L32.5378008,33.347625 C31.5964922,34.2876387 31.078125,35.5387324 31.078125,36.8704102 L31.078125,42.7324219 L30.0820312,42.7324219 C29.5319883,42.7324219 29.0859375,43.178373 29.0859375,43.7285156 L29.0859375,50.0039062 C29.0859375,50.5540488 29.5319883,51 30.0820312,51 L44.0273438,51 C44.5773867,51 45.0234375,50.5540488 45.0234375,50.0039062 L45.0234375,43.7285156 C45.0234375,43.178373 44.5773867,42.7324219 44.0273438,42.7324219 L43.03125,42.7324219 L43.03125,42.2622656 C43.03125,42.0003926 43.1376328,41.7436992 43.3233047,41.558127 L49.5409219,35.3405098 C50.481832,34.3995 51,33.1486055 51,31.8182227 L51,18.5273438 C51,16.3303594 49.2126094,14.5429688 47.015625,14.5429688 Z M43.03125,49.0078125 L31.078125,49.0078125 L31.078125,44.7246094 L43.03125,44.7246094 L43.03125,49.0078125 Z M49.0078125,31.8182227 C49.0078125,32.6164922 48.696832,33.3671484 48.1321465,33.931834 L41.9145293,40.1494512 C41.3581113,40.7058691 41.0390625,41.4759492 41.0390625,42.2622656 L41.0390625,42.7324219 L33.0703125,42.7324219 L33.0703125,36.8704102 C33.0703125,36.0713437 33.3810937,35.3208867 33.9459785,34.7567988 L40.6267793,28.075998 C41.3744473,27.3282305 42.5755371,27.2946621 43.3610566,27.999498 C43.3667344,28.0044785 43.3724121,28.0095586 43.3781895,28.0144395 C43.4009004,28.0338633 43.4222168,28.0547812 43.4437324,28.0762969 C43.8200566,28.4523223 44.0273438,28.9523613 44.0273438,29.484375 C44.0273438,30.0163887 43.8200566,30.5164277 43.4435332,30.892752 L38.4939434,35.8423418 C38.1049688,36.2313164 38.1049688,36.862043 38.4939434,37.2511172 C38.8830176,37.6400918 39.5135449,37.6401914 39.9027187,37.2511172 L44.8521094,32.3018262 C45.6048574,31.549377 46.0195312,30.5489004 46.0195312,29.484375 C46.0195312,28.5042188 45.6671133,27.5786484 45.0234375,26.8507031 L45.0234375,18.5273438 C45.0234375,17.4288516 45.9171328,16.5351562 47.015625,16.5351562 C48.1141172,16.5351562 49.0078125,17.4288516 49.0078125,18.5273438 L49.0078125,31.8182227 Z" id="Shape"></path>
                    <path d="M20.9179688,42.7324219 L19.921875,42.7324219 L19.921875,36.8704102 C19.921875,35.5387324 19.4035078,34.2876387 18.4627969,33.348123 L11.7819961,26.6673223 C10.7521348,25.6374609 9.29196094,25.2856406 7.96875,25.6265039 L7.96875,18.5273438 C7.96875,16.3303594 6.18135937,14.5429688 3.984375,14.5429688 C1.78739063,14.5429688 0,16.3303594 0,18.5273438 L0,31.8182227 C0,33.1486055 0.518167969,34.3995 1.45907813,35.3405098 L7.67669531,41.5580273 C7.86236719,41.7436992 7.96875,42.000293 7.96875,42.2622656 L7.96875,42.7324219 L6.97265625,42.7324219 C6.42261328,42.7324219 5.9765625,43.178373 5.9765625,43.7285156 L5.9765625,50.0039062 C5.9765625,50.5540488 6.42261328,51 6.97265625,51 L20.9179688,51 C21.4680117,51 21.9140625,50.5540488 21.9140625,50.0039062 L21.9140625,43.7285156 C21.9140625,43.178373 21.4680117,42.7324219 20.9179688,42.7324219 Z M2.86785352,33.9319336 C2.30316797,33.3671484 1.9921875,32.6164922 1.9921875,31.8182227 L1.9921875,18.5273438 C1.9921875,17.4288516 2.88588281,16.5351562 3.984375,16.5351562 C5.08286719,16.5351562 5.9765625,17.4288516 5.9765625,18.5273438 L5.9765625,26.8506035 C5.33288672,27.5785488 4.98046875,28.5040195 4.98046875,29.484375 C4.98046875,30.5489004 5.39514258,31.549377 6.14779102,32.3014277 L11.1282598,37.2818965 C11.517334,37.6708711 12.1478613,37.6708711 12.5370352,37.2818965 C12.9260098,36.8929219 12.9260098,36.2621953 12.5370352,35.8731211 L7.55626758,30.8923535 C7.17994336,30.5164277 6.97265625,30.0163887 6.97265625,29.484375 C6.97265625,28.9523613 7.17994336,28.4523223 7.55596875,28.0763965 C7.57768359,28.0547813 7.59909961,28.0338633 7.62171094,28.0144395 L7.63884375,27.999498 C8.42426367,27.2946621 9.62545312,27.3283301 10.3731211,28.075998 L17.0544199,34.7571973 C17.6188066,35.3208867 17.9295879,36.0712441 17.9295879,36.8703105 L17.9295879,42.7324219 L9.96083789,42.7324219 L9.96083789,42.2622656 C9.9609375,41.4759492 9.64188867,40.7058691 9.0854707,40.1494512 L2.86785352,33.9319336 Z M19.921875,49.0078125 L7.96875,49.0078125 L7.96875,44.7246094 L19.921875,44.7246094 L19.921875,49.0078125 Z" id="Shape"></path>
                    <path d="M25.5,0 C17.2613086,0 10.5585938,6.70271484 10.5585938,14.9414062 C10.5585938,23.1800977 17.2613086,29.8828125 25.5,29.8828125 C33.7386914,29.8828125 40.4414062,23.1800977 40.4414062,14.9414062 C40.4414062,6.70271484 33.7386914,0 25.5,0 Z M25.5,27.890625 C18.3597012,27.890625 12.5507812,22.0816055 12.5507812,14.9414062 C12.5507812,7.80120703 18.3597012,1.9921875 25.5,1.9921875 C32.6402988,1.9921875 38.4492188,7.80120703 38.4492188,14.9414062 C38.4492188,22.0816055 32.6402988,27.890625 25.5,27.890625 Z" id="Shape"></path>
                    <path d="M32.3784258,6.41175586 C29.7864902,4.31896289 26.3941934,3.5296582 23.0728184,4.24575 C22.5350273,4.36169531 22.1930684,4.89161719 22.3090137,5.4294082 C22.424959,5.96709961 22.9549805,6.30875977 23.4926719,6.19311328 C26.2228652,5.60442187 29.0055527,6.24899414 31.1270332,7.96167773 C33.2482148,9.67446094 34.4648438,12.2183848 34.4648438,14.9414062 C34.4648438,19.8846211 30.4432148,23.90625 25.5,23.90625 C20.5567852,23.90625 16.5351562,19.8846211 16.5351562,14.9414062 C16.5351562,13.4647969 16.9017188,12.0011367 17.5951992,10.7088047 C17.8552793,10.2241055 17.6731934,9.62027344 17.1884941,9.36009375 C16.7036953,9.09991406 16.0997637,9.28209961 15.8397832,9.76679883 C14.9914102,11.3478984 14.5429688,13.1371816 14.5429688,14.9414062 C14.5429688,20.9831133 19.458293,25.8984375 25.5,25.8984375 C31.541707,25.8984375 36.4570312,20.9831133 36.4570312,14.9414062 C36.4570312,11.6133574 34.9704609,8.50444922 32.3784258,6.41175586 Z" id="Shape"></path>
                </g>
                <g id="Shape" transform="translate(21.000000, 10.000000)">
                    <path d="M4.84913793,10.5034722 C7.1950431,10.5034722 9.69827586,10.3821571 9.69827586,8.92795139 L9.69827586,7.05518229 L6.79956897,5.35992187 L6.58836207,5.15405382 C7.17180765,4.67201009 7.54310345,3.95317871 7.54310345,3.15104167 L7.54310345,2.62586806 C7.54310345,1.17796441 6.33459052,0 4.84913793,0 C3.36368534,0 2.15517241,1.17796441 2.15517241,2.62586806 L2.15517241,3.15104167 C2.15517241,3.95317871 2.52646821,4.67201009 3.10991379,5.15405382 L2.8987069,5.35992188 L4.54747351e-13,7.05518229 L4.54747351e-13,8.92795139 C4.54747351e-13,10.3821571 2.50323276,10.5034722 4.84913793,10.5034722 Z M3.23275862,2.62586806 C3.23275862,1.7572309 3.95797414,1.05034722 4.84913793,1.05034722 C5.74030172,1.05034722 6.46551724,1.7572309 6.46551724,2.62586806 L6.46551724,3.15104167 C6.46551724,4.01967882 5.74030172,4.7265625 4.84913793,4.7265625 C3.95797414,4.7265625 3.23275862,4.01967882 3.23275862,3.15104167 L3.23275862,2.62586806 Z M1.07758621,7.64967882 L3.51023707,6.22698351 L4.09960938,5.67272841 C4.33775593,5.74008192 4.58903556,5.77690972 4.84913793,5.77690972 C5.10870151,5.77690972 5.3595097,5.74021322 5.59718481,5.67312229 L6.08459052,6.14820747 L8.62068966,7.64967882 L8.62068966,8.92795139 C8.62068966,8.93320312 8.57758621,9.453125 4.84913793,9.453125 C1.12068966,9.453125 1.07758621,8.93320312 1.07758621,8.92795139 L1.07758621,7.64967882 Z"></path>
                </g>
            </g>
        </g>
    </g>
</svg>