<svg xmlns="http://www.w3.org/2000/svg" width="193" height="43" viewBox="0 0 193 43">
    <g fill="none" fill-rule="evenodd">
        <path fill="#E8812C" d="M123.5 19a2.502 2.502 0 0 0-2.5 2.5c0 1.379 1.121 2.5 2.5 2.5s2.5-1.121 2.5-2.5-1.121-2.5-2.5-2.5"/>
        <path fill="#E8812C" d="M179.086 6.678H33.459a19.113 19.113 0 0 0-5.12-2.65A19.26 19.26 0 0 0 22.162 3C17.957 3 14.08 4.36 10.92 6.637c-4.259 3.07-7.2 7.824-7.8 13.285-.074.683-.119 1.375-.119 2.079 0 5.8 2.63 10.985 6.761 14.469a19.132 19.132 0 0 0 6.225 3.502A19.223 19.223 0 0 0 22.162 41c2.165 0 4.237-.372 6.177-1.028a19.109 19.109 0 0 0 5.12-2.649h138.55c10.47 0 18.991-8.447 18.991-18.831 0-6.515-5.345-11.814-11.914-11.814zM22.162 38.743c-9.324 0-16.884-7.496-16.884-16.742 0-9.247 7.56-16.742 16.884-16.742 9.326 0 16.885 7.495 16.885 16.742 0 9.246-7.56 16.742-16.885 16.742zM54.73 30.38h-5.48l-.254-.458-.107-.196-1.926-3.492v4.145H41.04V13.626h6.746c.78 0 1.55.08 2.288.238a6.542 6.542 0 0 1 2.184.888 5.032 5.032 0 0 1 1.665 1.769c.416.74.627 1.636.627 2.664 0 1.253-.358 2.335-1.065 3.216-.375.468-.83.863-1.357 1.185l3.01 4.886.348.569.826 1.34H54.73zm14.35-4.566c0 2.518-2.064 4.566-4.604 4.566h-7.949V13.625h12.188v5.406l-.344-.002v5.454l.004.45h.706v.88zm13.266-6.742h-2.791v11.307H73.55V19.073h-4.059v-5.447H83.611v5.446h-1.266zm14.598-2.218l-.265.278-2.213 2.311-.299.314-.33.344c.38.186.741.404 1.079.654a5.352 5.352 0 0 1 1.406 1.563c.398.67.601 1.484.601 2.419 0 1.013-.198 1.917-.59 2.688a5.47 5.47 0 0 1-1.59 1.91 6.526 6.526 0 0 1-2.183 1.074 8.714 8.714 0 0 1-2.4.332 9.853 9.853 0 0 1-3.425-.612c-1.136-.42-2.1-1.034-2.867-1.825l-.253-.262-.596-.617.603-.61.256-.26 2.274-2.294.295-.298.461-.468a5.73 5.73 0 0 1-1.129-.803 4.898 4.898 0 0 1-1.123-1.543c-.286-.615-.43-1.343-.43-2.166 0-1.009.22-1.902.654-2.653a5.441 5.441 0 0 1 1.655-1.797 6.774 6.774 0 0 1 2.196-.98 9.539 9.539 0 0 1 2.322-.292c.95 0 1.927.173 2.906.513 1 .351 1.893.878 2.654 1.567l.285.256.67.607-.624.65zm16.843-2.349V30.38h-6.002v-5.956h-3.07v5.956h-6V13.626H104.714v5.391h3.07v-5.391h6.002v.88zM124.64 30.74c-4.86 0-8.812-3.92-8.812-8.738 0-4.82 3.953-8.739 8.812-8.739 4.86 0 8.814 3.92 8.814 8.739 0 4.819-3.954 8.738-8.814 8.738zm21.768-11.667h-2.793v11.307H137.615V19.073h-4.057v-5.447H147.676v5.446h-1.268zm14.598-2.216l-.266.276-2.213 2.311-.3.314-.328.343c.381.187.742.406 1.08.655a5.332 5.332 0 0 1 1.405 1.563c.4.67.6 1.485.6 2.419 0 1.011-.196 1.916-.59 2.689a5.486 5.486 0 0 1-1.587 1.91 6.526 6.526 0 0 1-2.184 1.073 8.746 8.746 0 0 1-2.402.332 9.86 9.86 0 0 1-3.426-.612c-1.132-.42-2.095-1.033-2.863-1.823l-.254-.263-.598-.616.603-.612.257-.26 2.273-2.294.294-.298.463-.468a5.897 5.897 0 0 1-1.129-.803 4.879 4.879 0 0 1-1.12-1.54c-.288-.614-.432-1.344-.432-2.17 0-1.01.22-1.904.653-2.65a5.412 5.412 0 0 1 1.656-1.799 6.787 6.787 0 0 1 2.196-.98 9.497 9.497 0 0 1 2.322-.292c.95 0 1.926.173 2.905.514a7.71 7.71 0 0 1 2.655 1.567l.284.257.667.605-.621.652zm14.327 8.958c0 2.518-2.065 4.566-4.605 4.566h-7.951V13.625h12.192v5.406l-.346.002v5.45l-.002.45h.712v.88z"/>
        <path fill="#E8812C" d="M22 17a5 5 0 0 0-5 5 5 5 0 1 0 5-5"/>
        <path fill="#1D1C1C" d="M178.439 3.655H33.897a21.79 21.79 0 0 0-5.07-2.494A22.011 22.011 0 0 0 21.799 0 21.83 21.83 0 0 0 9.006 4.114C4.029 7.682.796 13.163.136 19.152.044 19.982 0 20.748 0 21.5c0 6.306 2.802 12.274 7.689 16.374a21.757 21.757 0 0 0 7.082 3.964A22.011 22.011 0 0 0 21.799 43c2.37 0 4.734-.39 7.027-1.161a21.72 21.72 0 0 0 5.07-2.494h137.479c11.923 0 21.625-9.568 21.625-21.329 0-7.919-6.534-14.36-14.561-14.36m-7.064 33.057H33.075a19.075 19.075 0 0 1-5.111 2.632 19.28 19.28 0 0 1-6.165 1.02c-2.16 0-4.23-.368-6.166-1.02a19.15 19.15 0 0 1-6.213-3.477C5.296 32.407 2.671 27.26 2.671 21.5c0-.699.046-1.386.12-2.064.599-5.424 3.534-10.143 7.785-13.192a19.201 19.201 0 0 1 17.388-2.59 19.075 19.075 0 0 1 5.111 2.632H178.44c6.557 0 11.893 5.261 11.893 11.73 0 10.31-8.505 18.696-18.957 18.696"/>
        <path fill="#1D1C1C" d="M21.5 6C12.953 6 6 12.953 6 21.5S12.953 37 21.5 37 37 30.047 37 21.5 30.047 6 21.5 6m0 24.09c-4.736 0-8.589-3.854-8.589-8.59 0-4.737 3.853-8.59 8.589-8.59 4.738 0 8.59 3.853 8.59 8.59 0 4.736-3.852 8.59-8.59 8.59"/>
        <path fill="#FFFFFE" d="M22 5C12.612 5 5 12.387 5 21.5S12.612 38 22 38c9.39 0 17-7.387 17-16.5S31.39 5 22 5m0 31.911c-8.755 0-15.877-6.914-15.877-15.41C6.123 13.003 13.245 6.09 22 6.09s15.877 6.913 15.877 15.41S30.755 36.912 22 36.912"/>
        <path fill="#FFFFFE" d="M21.5 13c-4.688 0-8.5 3.812-8.5 8.5 0 4.686 3.812 8.5 8.5 8.5 4.688 0 8.5-3.814 8.5-8.5 0-4.688-3.812-8.5-8.5-8.5m0 13.35a4.85 4.85 0 0 1 0-9.7 4.85 4.85 0 1 1 0 9.7"/>
        <path fill="#1D1C1C" d="M51.077 22.726c.806-.311 1.461-.773 1.953-1.377.59-.722.887-1.62.887-2.668 0-.876-.176-1.629-.523-2.235A4.162 4.162 0 0 0 52 14.986a5.803 5.803 0 0 0-1.918-.768A10.39 10.39 0 0 0 47.948 14H42V29h4.207v-5.658h.594l3.057 5.464.11.194H55l-.356-.57-3.567-5.704zm-1.582-3.308c-.12.173-.273.304-.465.398-.21.103-.452.175-.718.217a5.46 5.46 0 0 1-.83.066h-1.295v-2.573h1.501c.246 0 .502.02.765.055.242.035.454.099.646.195.17.086.308.202.417.36.1.145.151.348.151.606 0 .283-.057.51-.172.676z"/>
        <path fill="#FFFFFE" d="M48.51 18.291a1.476 1.476 0 0 0-.557-.226 3.48 3.48 0 0 0-.659-.065H46v3h1.117c.225 0 .467-.026.714-.076.23-.049.439-.134.62-.254.165-.109.297-.26.4-.463.1-.193.149-.458.149-.79 0-.3-.043-.538-.13-.706a1.076 1.076 0 0 0-.36-.42"/>
        <path fill="#FFFFFE" d="M54.846 28.063l-2.956-4.957c.519-.326.964-.729 1.333-1.202.694-.894 1.048-1.992 1.048-3.263 0-1.043-.209-1.953-.618-2.703a5.026 5.026 0 0 0-1.634-1.795 6.355 6.355 0 0 0-2.145-.902c-.726-.16-1.482-.241-2.25-.241H41V30h5.815v-4.208l1.892 3.545.105.198.25.465H56l-.811-1.36-.343-.577zm-1.061 1.043h-4.207l-.105-.198-2.958-5.541h-.572v5.739h-4.07V13.893h5.752c.706 0 1.4.076 2.063.222.685.152 1.31.414 1.855.778a4.118 4.118 0 0 1 1.348 1.481c.336.616.506 1.377.506 2.267 0 1.063-.288 1.974-.858 2.706-.474.612-1.108 1.08-1.888 1.396l3.45 5.786.344.577h-.66z"/>
        <path fill="#1D1C1C" d="M70.366 14H70V17.687h3.946V29h4.109V17.687H82V14h-.367z"/>
        <path fill="#FFFFFE" d="M83 17.633V13H69V18.527h4.025V30h5.951V18.527H83v-.894zm-.882-3.359v3.359h-4.022v11.474h-4.19V17.632h-4.024v-3.739H82.118v.38z"/>
        <path fill="#1D1C1C" d="M93.373 14.472A7.747 7.747 0 0 0 90.771 14c-.696 0-1.402.09-2.095.268a5.79 5.79 0 0 0-1.901.866 4.643 4.643 0 0 0-1.385 1.539c-.354.627-.536 1.385-.536 2.255 0 .707.119 1.323.348 1.83.232.503.54.935.916 1.286.369.345.796.633 1.271.857.455.211.92.395 1.386.548.471.15.89.29 1.259.416.342.122.63.255.853.394.206.13.364.272.47.423a.79.79 0 0 1 .13.474c0 .224-.038.411-.117.555a.937.937 0 0 1-.311.356 1.49 1.49 0 0 1-.51.212 3.026 3.026 0 0 1-.668.074c-.503 0-1.02-.134-1.538-.4a3.85 3.85 0 0 1-1.264-.997l-.264-.33-.295.303-2.264 2.338-.256.262.253.267c.67.708 1.52 1.259 2.526 1.639a8.736 8.736 0 0 0 3.102.565c.742 0 1.463-.102 2.147-.3a5.58 5.58 0 0 0 1.882-.944 4.636 4.636 0 0 0 1.332-1.638c.328-.658.494-1.443.494-2.332 0-.79-.16-1.465-.476-2.006a4.486 4.486 0 0 0-1.17-1.33 6.169 6.169 0 0 0-1.53-.84 45.43 45.43 0 0 0-1.529-.546 22.516 22.516 0 0 1-.897-.313 3.462 3.462 0 0 1-.63-.306.998.998 0 0 1-.323-.308.766.766 0 0 1-.095-.412c0-.208.04-.372.12-.487a1.2 1.2 0 0 1 .366-.346c.153-.094.317-.154.503-.185.224-.039.433-.057.636-.057.39 0 .802.102 1.227.302.421.2.766.47 1.025.801l.269.345.3-.318 2.204-2.355.264-.28-.283-.262a6.811 6.811 0 0 0-2.344-1.411"/>
        <path fill="#FFFFFE" d="M97.016 15.023A8.1 8.1 0 0 0 94.28 13.5 9.597 9.597 0 0 0 91.283 13c-.797 0-1.603.096-2.394.283a7.219 7.219 0 0 0-2.266.954 5.434 5.434 0 0 0-1.704 1.748c-.448.73-.675 1.599-.675 2.58 0 .8.15 1.509.443 2.106.293.586.681 1.09 1.159 1.501.348.3.74.563 1.163.781l-.476.455-.303.29-2.344 2.232-.265.252-.621.594.614.6.262.254c.79.77 1.784 1.367 2.954 1.775 1.133.394 2.32.595 3.532.595.852 0 1.685-.11 2.475-.323a6.913 6.913 0 0 0 2.252-1.044 5.405 5.405 0 0 0 1.639-1.858c.403-.749.608-1.629.608-2.614 0-.91-.209-1.702-.62-2.352a5.324 5.324 0 0 0-1.45-1.52 7.426 7.426 0 0 0-1.113-.636l.342-.335.308-.305 2.282-2.248.272-.269.643-.634-.69-.59-.294-.25zm-.597 1.152l-2.281 2.248-.309.305-.278-.329a2.863 2.863 0 0 0-1.062-.766 3.184 3.184 0 0 0-1.27-.29c-.21 0-.425.018-.658.055a1.51 1.51 0 0 0-.52.177c-.15.085-.273.194-.377.33-.084.11-.126.267-.126.466 0 .166.032.297.098.394.072.108.185.206.335.295.178.104.398.201.651.29.276.096.583.196.93.3.517.16 1.049.336 1.58.522a6.463 6.463 0 0 1 1.584.803 4.39 4.39 0 0 1 1.21 1.27c.328.518.495 1.162.495 1.916 0 .85-.174 1.6-.512 2.23a4.548 4.548 0 0 1-1.379 1.562 5.93 5.93 0 0 1-1.947.901 8.489 8.489 0 0 1-2.22.29 9.714 9.714 0 0 1-3.212-.542c-1.04-.363-1.92-.89-2.614-1.565l-.262-.254.265-.252 2.344-2.232.304-.292.274.316c.327.376.766.698 1.307.953a3.72 3.72 0 0 0 1.593.382c.238 0 .47-.023.69-.07.206-.042.382-.111.528-.203a.923.923 0 0 0 .323-.34c.08-.138.12-.316.12-.53a.724.724 0 0 0-.134-.454 1.654 1.654 0 0 0-.488-.402 4.479 4.479 0 0 0-.883-.376 53.778 53.778 0 0 0-1.3-.398 13.644 13.644 0 0 1-1.436-.525 5.127 5.127 0 0 1-1.315-.818 3.912 3.912 0 0 1-.947-1.23c-.238-.484-.36-1.072-.36-1.747 0-.83.187-1.556.554-2.155a4.567 4.567 0 0 1 1.434-1.468 6.245 6.245 0 0 1 1.966-.829 9.423 9.423 0 0 1 2.17-.256c.875 0 1.78.152 2.69.45a7.169 7.169 0 0 1 2.425 1.349l.293.25-.273.27z"/>
        <path fill="#1D1C1C" d="M108.24 14h-.37v5.394h-4.74V14H99v15h4.13v-5.961h4.74V29H112V14h-.37z"/>
        <path fill="#FFFFFE" d="M111.74 13h-4.713v5.471h-3.056V13H98v17h5.971V23.957h3.056V30H113V13h-1.26zm.375 1.273V29.107h-4.203v-6.044h-4.824v6.044h-4.204V13.892h4.204v5.471h4.824v-5.471H112.115v.38z"/>
        <path fill="#1D1C1C" d="M134.367 14H134V17.687h3.945V29H142.053V17.687H146V14h-.367z"/>
        <path fill="#FFFFFE" d="M147 17.633V13H133V18.527h4.024V30h5.951V18.527H147v-.894zm-.882-3.359v3.359h-4.025v11.474h-4.188V17.632h-4.025v-3.739h12.238v.38z"/>
        <path fill="#1D1C1C" d="M157.374 14.472a7.747 7.747 0 0 0-2.6-.472c-.7 0-1.405.09-2.096.268a5.79 5.79 0 0 0-1.901.866 4.617 4.617 0 0 0-1.387 1.539c-.354.625-.534 1.384-.534 2.255 0 .708.115 1.324.349 1.83.228.501.536.933.912 1.286.373.347.8.635 1.274.857.457.213.922.396 1.383.548.473.15.892.29 1.259.416.342.12.63.253.855.394.203.129.362.27.47.423a.79.79 0 0 1 .131.474c0 .222-.04.41-.118.555a.93.93 0 0 1-.31.355c-.143.098-.314.17-.511.213a3.036 3.036 0 0 1-.668.074c-.504 0-1.022-.134-1.539-.4a3.862 3.862 0 0 1-1.265-.997l-.264-.33-.294.303-2.266 2.338-.254.264.251.265c.674.708 1.523 1.26 2.527 1.639a8.746 8.746 0 0 0 3.104.565c.74 0 1.463-.102 2.147-.3a5.574 5.574 0 0 0 1.884-.944 4.696 4.696 0 0 0 1.33-1.636c.328-.66.495-1.445.495-2.334 0-.79-.161-1.463-.477-2.006a4.501 4.501 0 0 0-1.168-1.33 6.138 6.138 0 0 0-1.53-.84c-.5-.189-1.013-.372-1.53-.546-.336-.11-.635-.215-.898-.313a3.613 3.613 0 0 1-.631-.306 1.022 1.022 0 0 1-.326-.31.775.775 0 0 1-.093-.41c0-.208.041-.372.122-.487.1-.144.22-.257.364-.346.151-.092.32-.154.505-.185.225-.039.432-.057.636-.057.39 0 .802.102 1.225.302.422.198.766.468 1.027.801l.269.345.298-.318 2.207-2.355.262-.28-.283-.262a6.799 6.799 0 0 0-2.343-1.411"/>
        <path fill="#FFFFFE" d="M160.02 15.024a8.09 8.09 0 0 0-2.738-1.523 9.588 9.588 0 0 0-2.997-.501c-.799 0-1.604.096-2.393.283a7.173 7.173 0 0 0-2.263.956 5.39 5.39 0 0 0-1.707 1.749c-.448.726-.674 1.593-.674 2.577 0 .803.15 1.513.445 2.11.287.58.675 1.083 1.154 1.497a6.01 6.01 0 0 0 1.164.781l-.476.455-.304.29-2.343 2.232-.264.252-.624.596.617.599.263.255c.79.769 1.784 1.365 2.952 1.773 1.132.395 2.32.595 3.53.595a9.47 9.47 0 0 0 2.478-.323 6.889 6.889 0 0 0 2.25-1.043 5.425 5.425 0 0 0 1.638-1.858c.405-.75.61-1.63.61-2.615 0-.908-.21-1.7-.622-2.352a5.292 5.292 0 0 0-1.447-1.52 7.315 7.315 0 0 0-1.114-.638l.34-.333.308-.305 2.282-2.248.273-.269.642-.633-.69-.59-.29-.249zm-.6 1.151l-2.282 2.248-.308.305-.278-.329a2.865 2.865 0 0 0-1.063-.766 3.162 3.162 0 0 0-1.268-.29c-.21 0-.425.018-.658.055-.19.03-.365.09-.52.178a1.19 1.19 0 0 0-.378.33c-.083.11-.125.266-.125.465a.7.7 0 0 0 .097.392c.072.108.187.208.335.296.182.107.402.205.652.291.275.096.583.196.931.3.533.167 1.065.343 1.581.522.574.201 1.106.471 1.583.803.484.339.89.765 1.209 1.27.327.518.493 1.163.493 1.916 0 .849-.172 1.6-.512 2.23a4.554 4.554 0 0 1-1.376 1.562 5.936 5.936 0 0 1-1.949.901 8.506 8.506 0 0 1-2.221.29 9.725 9.725 0 0 1-3.211-.542c-1.038-.362-1.918-.888-2.613-1.564l-.261-.255.264-.252 2.343-2.232.304-.29.274.314c.331.38.77.699 1.308.954.534.252 1.07.38 1.592.38.239 0 .472-.022.692-.068.203-.043.381-.11.527-.204a.903.903 0 0 0 .322-.339c.08-.14.122-.318.122-.531a.724.724 0 0 0-.135-.454 1.67 1.67 0 0 0-.488-.402 4.409 4.409 0 0 0-.884-.376c-.38-.123-.813-.255-1.3-.398-.478-.145-.96-.322-1.433-.525a5.205 5.205 0 0 1-1.316-.817 3.927 3.927 0 0 1-.946-1.23c-.24-.482-.36-1.07-.36-1.748 0-.831.187-1.557.554-2.154a4.528 4.528 0 0 1 1.434-1.47 6.228 6.228 0 0 1 1.966-.826 9.32 9.32 0 0 1 2.167-.258c.876 0 1.781.152 2.691.452a7.12 7.12 0 0 1 2.424 1.348l.294.25-.273.268z"/>
        <path fill="#1D1C1C" d="M167.187 23.1h6.088V19.596h-6.088v-1.95h6.44V14H163v15H170.207c2.095 0 3.793-1.65 3.793-3.687h-6.813V23.1z"/>
        <path fill="#FFFFFE" d="M174.265 24.017V18.486l.357-.001V13H162V30h8.232c2.63 0 4.768-2.08 4.768-4.633v-.894h-.737l.002-.456zm-4.033 5.09H162.92V13.892H173.704v3.698h-6.534v1.978h6.175v3.555h-6.175v2.243h6.912c0 2.065-1.723 3.74-3.849 3.74z"/>
        <path fill="#1D1C1C" d="M61.187 23.1h6.088V19.596h-6.088v-1.95H67.627V14H57v15H64.207C66.302 29 68 27.35 68 25.313h-6.813V23.1z"/>
        <path fill="#FFFFFE" d="M68.265 24.017v-5.535l.357.003V13H56V30h8.232C66.862 30 69 27.92 69 25.367v-.894h-.732l-.003-.456zm-4.033 5.09H56.92V13.892h10.781v3.698h-6.532v1.978h6.175v3.555H61.17v2.243h6.912c0 2.065-1.723 3.74-3.849 3.74z"/>
        <path fill="#1D1C1C" d="M124 14a8 8 0 1 0 0 16 8 8 0 0 0 0-16m0 11.612a3.611 3.611 0 1 1 0-7.224 3.611 3.611 0 1 1 0 7.224"/>
        <path fill="#FFFFFE" d="M123.5 18a3.5 3.5 0 1 0-.001 6.999A3.5 3.5 0 0 0 123.5 18m0 6.13a2.634 2.634 0 0 1-2.631-2.63c0-1.45 1.18-2.63 2.631-2.63a2.634 2.634 0 0 1 2.631 2.63c0 1.45-1.18 2.63-2.631 2.63"/>
        <path fill="#FFFFFE" d="M124 13c-4.964 0-9 3.813-9 8.5 0 4.687 4.036 8.5 9 8.5 4.962 0 9-3.813 9-8.5 0-4.687-4.038-8.5-9-8.5m0 16.143c-4.47 0-8.093-3.421-8.093-7.643 0-4.222 3.624-7.643 8.092-7.643 4.47 0 8.093 3.421 8.093 7.643 0 4.222-3.623 7.643-8.093 7.643"/>
    </g>
</svg>
