<?xml version="1.0" encoding="UTF-8"?>
<svg width="50px" height="55px" viewBox="0 0 50 55" version="1.1" xmlns="http://www.w3.org/2000/svg" xmlns:xlink="http://www.w3.org/1999/xlink">
    <!-- Generator: Sketch 51.2 (57519) - http://www.bohemiancoding.com/sketch -->
    <title>network</title>
    <desc>Created with Sketch.</desc>
    <defs></defs>
    <g id="Page-1" stroke="none" stroke-width="1" fill="none" fill-rule="evenodd">
        <g id="What-we-stand-for" transform="translate(-859.000000, -1239.000000)" fill="#000000" fill-rule="nonzero">
            <g id="network" transform="translate(859.000000, 1239.000000)">
                <rect id="Rectangle-path" x="24.137931" y="3.4375" width="1.72413793" height="1.71875"></rect>
                <rect id="Rectangle-path" x="3.44827586" y="15.46875" width="1.72413793" height="1.71875"></rect>
                <rect id="Rectangle-path" x="44.8275862" y="15.46875" width="1.72413793" height="1.71875"></rect>
                <rect id="Rectangle-path" x="3.44827586" y="37.8125" width="1.72413793" height="1.71875"></rect>
                <path d="M47.9373922,35.0071777 C48.7334052,32.6049023 49.137931,30.0833887 49.137931,27.5 C49.137931,24.9163965 48.7332974,22.394668 47.9372845,19.9929297 C49.1734914,19.2366797 50,17.8769336 50,16.328125 C50,13.9588281 48.0663793,12.03125 45.6896552,12.03125 C45.025,12.03125 44.3951509,12.1821777 43.8324353,12.4511621 C40.1591595,7.88175781 35.0404095,4.84322266 29.2824353,3.81358398 C29.0405172,1.67105469 27.2127155,0 25,0 C22.7869612,0 20.9590517,1.67137695 20.7175647,3.81422852 C14.9578664,4.84365234 9.83965517,7.88208008 6.1669181,12.4508398 C5.6044181,12.1820703 4.97478448,12.03125 4.31034483,12.03125 C1.93362069,12.03125 0,13.9588281 0,16.328125 C0,17.8769336 0.826508621,19.2366797 2.06271552,19.9929297 C1.26659483,22.3938086 0.862068966,24.9148926 0.862068966,27.5 C0.862068966,30.0848926 1.26659483,32.6057617 2.0625,35.0071777 C0.826400862,35.7634277 0,37.1231738 0,38.671875 C0,41.0411719 1.93362069,42.96875 4.31034483,42.96875 C4.97478448,42.96875 5.6044181,42.8179297 6.16702586,42.5490527 C9.83900862,47.1162012 14.9578664,50.1546289 20.7175647,51.1855566 C20.958944,53.3285156 22.7869612,55 25,55 C27.2130388,55 29.0411638,53.3284082 29.2824353,51.1854492 C35.0417026,50.1550586 40.1596983,47.1167383 43.8328664,42.5489453 C44.3954741,42.8178223 45.0252155,42.96875 45.6896552,42.96875 C48.0663793,42.96875 50,41.0411719 50,38.671875 C50,37.1230664 49.1735991,35.7634277 47.9373922,35.0071777 Z M47.4137931,27.5 C47.4137931,29.8829395 47.0442888,32.2070117 46.316056,34.4208691 C46.1114224,34.3911133 45.9023707,34.375 45.6896552,34.375 C44.365194,34.375 43.1787716,34.9740918 42.3875,35.9141406 L37.5242457,33.2565234 C38.337931,31.5043652 38.7931034,29.5542285 38.7931034,27.5 C38.7931034,25.4453418 38.3378233,23.4948828 37.5237069,21.7424023 L42.3875,19.0859668 C43.1788793,20.0259082 44.365194,20.625 45.6896552,20.625 C45.9023707,20.625 46.1114224,20.6088867 46.316056,20.5791309 C47.0442888,22.7929883 47.4137931,25.1170605 47.4137931,27.5 Z M12.9310345,27.5 C12.9310345,20.865625 18.3448276,15.46875 25,15.46875 C31.6551724,15.46875 37.0689655,20.865625 37.0689655,27.5 C37.0689655,34.134375 31.6551724,39.53125 25,39.53125 C18.3448276,39.53125 12.9310345,34.134375 12.9310345,27.5 Z M48.2758621,16.328125 C48.2758621,17.7495313 47.1155172,18.90625 45.6896552,18.90625 C44.2637931,18.90625 43.1034483,17.7495313 43.1034483,16.328125 C43.1034483,14.9067187 44.2637931,13.75 45.6896552,13.75 C47.1155172,13.75 48.2758621,14.9067187 48.2758621,16.328125 Z M25,1.71875 C26.4258621,1.71875 27.5862069,2.87546875 27.5862069,4.296875 C27.5862069,5.71828125 26.4258621,6.875 25,6.875 C23.5741379,6.875 22.4137931,5.71828125 22.4137931,4.296875 C22.4137931,2.87546875 23.5741379,1.71875 25,1.71875 Z M20.8726293,5.534375 C21.3259698,7.03398438 22.5801724,8.19081055 24.137931,8.50727539 L24.137931,12.03125 L25.862069,12.03125 L25.862069,8.50727539 C27.4200431,8.19070312 28.6743534,7.03355469 29.1274784,5.53373047 C34.397306,6.51191406 39.0799569,9.3062793 42.4576509,13.4897168 C41.7872845,14.2472559 41.3793103,15.2408008 41.3793103,16.328125 C41.3793103,16.7617871 41.4447198,17.1803027 41.5650862,17.575293 L36.7025862,20.231084 C34.2632543,16.3425195 29.9297414,13.75 25,13.75 C20.0695043,13.75 15.7354526,16.3432715 13.2962284,20.2328027 L8.43469828,17.5761523 C8.55528017,17.1809473 8.62068966,16.7621094 8.62068966,16.328125 C8.62068966,15.2405859 8.2125,14.2468262 7.5419181,13.4891797 C10.919181,9.30724609 15.6025862,6.51234375 20.8726293,5.534375 Z M4.31034483,13.75 C5.7362069,13.75 6.89655172,14.9067187 6.89655172,16.328125 C6.89655172,17.7495313 5.7362069,18.90625 4.31034483,18.90625 C2.88448276,18.90625 1.72413793,17.7495313 1.72413793,16.328125 C1.72413793,14.9067187 2.88448276,13.75 4.31034483,13.75 Z M2.5862069,27.5 C2.5862069,25.1155566 2.95635776,22.7921289 3.68405172,20.5791309 C3.88868534,20.6088867 4.09762931,20.625 4.31034483,20.625 C5.63448276,20.625 6.8205819,20.0262305 7.61185345,19.0866113 L12.4753233,21.7443359 C11.6618534,23.4962793 11.2068966,25.4460937 11.2068966,27.5 C11.2068966,29.5547656 11.6622845,31.505332 12.4762931,33.2578125 L7.61099138,35.9124219 C6.81961207,34.9733398 5.63394397,34.375 4.31034483,34.375 C4.09773707,34.375 3.8887931,34.3910059 3.68426724,34.4208691 C2.95646552,32.2080859 2.5862069,29.8839062 2.5862069,27.5 Z M1.72413793,38.671875 C1.72413793,37.2504688 2.88448276,36.09375 4.31034483,36.09375 C5.7362069,36.09375 6.89655172,37.2504688 6.89655172,38.671875 C6.89655172,40.0932812 5.7362069,41.25 4.31034483,41.25 C2.88448276,41.25 1.72413793,40.0932813 1.72413793,38.671875 Z M25,53.28125 C23.5741379,53.28125 22.4137931,52.1245312 22.4137931,50.703125 C22.4137931,49.2817188 23.5741379,48.125 25,48.125 C26.4258621,48.125 27.5862069,49.2817188 27.5862069,50.703125 C27.5862069,52.1245312 26.4258621,53.28125 25,53.28125 Z M29.1272629,49.4654102 C28.6739224,47.9659082 27.4197198,46.8091895 25.862069,46.4927246 L25.862069,42.96875 L24.137931,42.96875 L24.137931,46.4927246 C22.5800647,46.8091895 21.3257543,47.9663379 20.8725216,49.4661621 C15.6018319,48.4861523 10.9184267,45.6918945 7.5419181,41.5108203 C8.2125,40.7531738 8.62068966,39.7594141 8.62068966,38.671875 C8.62068966,38.2371387 8.55506466,37.8174414 8.43405172,37.4215918 L13.2969828,34.7683789 C15.7363147,38.6572656 20.0699353,41.25 25,41.25 C29.9301724,41.25 34.2639009,38.6570508 36.7032328,34.7680566 L41.5650862,37.4249219 C41.4447198,37.8196973 41.3793103,38.2383203 41.3793103,38.671875 C41.3793103,39.7591992 41.7872845,40.7527441 42.4577586,41.5103906 C39.08125,45.6923242 34.3979526,48.486582 29.1272629,49.4654102 Z M45.6896552,41.25 C44.2637931,41.25 43.1034483,40.0932812 43.1034483,38.671875 C43.1034483,37.2504688 44.2637931,36.09375 45.6896552,36.09375 C47.1155172,36.09375 48.2758621,37.2504688 48.2758621,38.671875 C48.2758621,40.0932812 47.1155172,41.25 45.6896552,41.25 Z" id="Shape"></path>
                <rect id="Rectangle-path" x="44.8275862" y="37.8125" width="1.72413793" height="1.71875"></rect>
                <rect id="Rectangle-path" x="24.137931" y="49.84375" width="1.72413793" height="1.71875"></rect>
            </g>
        </g>
    </g>
</svg>