<?xml version="1.0" encoding="UTF-8"?>
<svg width="40px" height="53px" viewBox="0 0 40 53" version="1.1" xmlns="http://www.w3.org/2000/svg" xmlns:xlink="http://www.w3.org/1999/xlink">
    <!-- Generator: Sketch 51.2 (57519) - http://www.bohemiancoding.com/sketch -->
    <title>fire</title>
    <desc>Created with Sketch.</desc>
    <defs></defs>
    <g id="Page-1" stroke="none" stroke-width="1" fill="none" fill-rule="evenodd">
        <g id="Who-we-are" transform="translate(-858.000000, -1824.000000)" fill="#000000">
            <g id="Group-8" transform="translate(0.000000, 1346.000000)">
                <g id="Group-6" transform="translate(0.000000, 88.000000)">
                    <g id="Group-4-Copy-2" transform="translate(734.000000, 58.000000)">
                        <g id="Passion" transform="translate(6.000000, 332.000000)">
                            <g id="fire" transform="translate(118.000000, 0.000000)">
                                <g id="Shape">
                                    <path d="M39.8212987,31.5319066 L39.7833766,31.0153113 C39.174026,23.1422335 35.4803117,18.2067374 32.2217143,13.8534163 C29.2043636,9.82232296 26.5983377,6.34123346 26.5983377,1.20487354 C26.5983377,0.792422179 26.3656104,0.415441634 25.9965714,0.226332685 C25.6263896,0.036192607 25.1816104,0.0673326848 24.8450909,0.310163424 C19.9511688,3.78589105 15.8678442,9.64404086 14.4414545,15.2335817 C13.4512208,19.1250603 13.3202078,23.4998288 13.3018182,26.3891537 C8.78233766,25.4310292 7.75854545,18.7211673 7.74774026,18.6481634 C7.69683117,18.3001576 7.4825974,17.9972121 7.17090909,17.8318191 C6.856,17.6685914 6.48581818,17.6567335 6.16654545,17.8135681 C5.92955844,17.9274047 0.349402597,20.7415603 0.0247272727,31.9786946 C0.00197402597,32.3524786 0.000935064935,32.7262626 0.000935064935,33.1010778 C0.000935064935,44.0171187 8.95002597,52.8987432 19.948987,52.8987432 C30.9479481,52.8987432 39.897039,44.0171187 39.897039,33.1010778 C39.897039,32.5533424 39.8592208,32.0421089 39.8212987,31.5319066 Z M19.948987,50.699037 C16.2822857,50.699037 13.2996364,47.545537 13.2996364,43.6691128 C13.2996364,43.5370253 13.2985974,43.4038035 13.3082597,43.2405759 C13.3526234,41.6058249 13.6654545,40.4898346 14.0085195,39.7476284 C14.6514286,41.1182043 15.8017662,42.378037 17.6676364,42.378037 C18.2802078,42.378037 18.7758961,41.8860856 18.7758961,41.2781323 C18.7758961,39.7120545 18.8084156,37.9055175 19.2012468,36.2749942 C19.5508571,34.8282179 20.3862857,33.2911148 21.4447792,32.0580914 C21.9155325,33.6585058 22.8333506,34.9538093 23.7294545,36.2180759 C25.0119481,38.0268813 26.3376623,39.8968327 26.5703896,43.0858035 C26.5844156,43.2748093 26.5985455,43.4649494 26.5985455,43.6690097 C26.5983377,47.545537 23.6156883,50.699037 19.948987,50.699037 Z M26.9528312,49.2619533 C28.1031688,47.7050525 28.8148571,45.7805545 28.8148571,43.6691128 C28.8148571,43.4102996 28.7986494,43.1696342 28.7661299,42.7196498 C28.5031688,39.1289514 26.9305974,36.9098599 25.5421299,34.9518502 C24.3592727,33.2848249 23.3387013,31.8445447 23.3387013,29.80157 C23.3387013,29.3837568 23.1005714,29.0024455 22.7239481,28.8166362 C22.3495065,28.6296926 21.8971429,28.6716595 21.5627013,28.9240798 C19.4371948,30.5179981 17.6644156,33.2010973 17.0454026,35.7628327 C16.7293506,37.0764903 16.619013,38.4974883 16.5800519,39.6660661 C15.8116364,38.8454942 15.5735065,37.3245798 15.5714286,37.3041634 C15.5216623,36.9507957 15.3030649,36.6424883 14.9837922,36.4782296 C14.6667013,36.3150019 14.2868571,36.3106712 13.9675844,36.4738988 C13.6883117,36.615679 11.2349091,38.0120331 11.0942338,43.1482899 C11.0844675,43.3223444 11.0834286,43.4962957 11.0834286,43.669216 C11.0834286,45.7806576 11.7951169,47.7051556 12.9454545,49.2620564 C6.6427013,46.5610156 2.21766234,40.3362996 2.21766234,33.101284 C2.21766234,32.7715292 2.21662338,32.4429086 2.23927273,32.0765486 C2.42971429,25.4837198 4.55532468,22.2142179 5.94275325,20.7717724 C6.91023377,24.2088327 9.44488312,28.7017685 14.4081039,28.7017685 C15.0206753,28.7017685 15.5163636,28.2098171 15.5163636,27.6018638 C15.5163636,23.9209416 15.5996883,19.667537 16.5910649,15.7728619 C17.7165714,11.3604572 20.7998961,6.59581907 24.5217662,3.3703463 C25.1397403,8.08136576 27.7251948,11.5356459 30.4428052,15.1649086 C33.6733506,19.4805934 37.0131948,23.9434202 37.5726753,31.1699805 L37.6105974,31.6962685 C37.6451948,32.1538833 37.6809351,32.6103638 37.6809351,33.1011809 C37.6806234,40.3361965 33.2555844,46.5609125 26.9528312,49.2619533 Z" fill-rule="nonzero"></path>
                                </g>
                            </g>
                        </g>
                    </g>
                </g>
            </g>
        </g>
    </g>
</svg>