<?xml version="1.0" encoding="UTF-8"?>
<svg width="57px" height="52px" viewBox="0 0 57 52" version="1.1" xmlns="http://www.w3.org/2000/svg" xmlns:xlink="http://www.w3.org/1999/xlink">
    <!-- Generator: Sketch 51.2 (57519) - http://www.bohemiancoding.com/sketch -->
    <title>high-five</title>
    <desc>Created with Sketch.</desc>
    <defs></defs>
    <g id="Page-1" stroke="none" stroke-width="1" fill="none" fill-rule="evenodd">
        <g id="Who-we-are" transform="translate(-1168.000000, -1823.000000)" fill="#000000">
            <g id="Group-8" transform="translate(0.000000, 1346.000000)">
                <g id="Group-6" transform="translate(0.000000, 88.000000)">
                    <g id="Group-4-Copy-3" transform="translate(1053.000000, 58.000000)">
                        <g id="respect" transform="translate(3.000000, 331.000000)">
                            <g id="high-five" transform="translate(112.000000, 0.000000)">
                                <g id="Shape">
                                    <path d="M28.4985527,0 C27.8837988,0 27.3852715,0.493228814 27.3852715,1.10169492 L27.3852715,7.65600847 C27.3852715,8.26447458 27.8837988,8.75770339 28.4985527,8.75770339 C29.1133066,8.75770339 29.611834,8.26447458 29.611834,7.65600847 L29.611834,1.10169492 C29.611834,0.493228814 29.1133066,0 28.4985527,0 Z" fill-rule="nonzero"></path>
                                    <path d="M22.1903672,9.40638136 L19.5267305,6.77277966 C19.0915488,6.34267797 18.3868418,6.34300847 17.9522168,6.77344068 C17.5177031,7.20387288 17.5180371,7.90135593 17.9528848,8.33145763 L20.6166328,10.9650593 C20.8340566,11.18 21.118834,11.2874153 21.4035,11.2874153 C21.6886113,11.2874153 21.9736113,11.1796695 22.1910352,10.9643983 C22.6255488,10.5339661 22.6252148,9.83648305 22.1903672,9.40638136 Z" fill-rule="nonzero"></path>
                                    <path d="M39.0470039,6.77542373 C38.6120449,6.34521186 37.9071152,6.34565254 37.4724902,6.77597458 L34.6406367,9.58055932 C34.206123,10.0109915 34.206457,10.7084746 34.6413047,11.1385763 C34.8587285,11.3536271 35.1436172,11.4610424 35.4282832,11.4610424 C35.7133945,11.4610424 35.9983945,11.3532966 36.2158184,11.1380254 L39.0476719,8.33344068 C39.4821855,7.90300847 39.4818516,7.20552542 39.0470039,6.77542373 Z" fill-rule="nonzero"></path>
                                    <path d="M49.7080078,29.0847458 L48.8095898,29.0847458 C49.5427969,28.1389407 49.9799824,26.9571525 49.9799824,25.6757712 L49.9799824,24.1209492 C49.9799824,21.026178 47.4358008,18.5084746 44.3085938,18.5084746 C41.1813867,18.5084746 38.6372051,21.026178 38.6372051,24.120839 L38.6372051,25.3295085 L30.2618789,17.0412373 C29.797084,16.5813898 29.1135293,16.4337627 28.5001113,16.653 C27.886916,16.4337627 27.2031387,16.5813898 26.7382324,17.0413475 L18.3630176,25.3295085 L18.3630176,24.120839 C18.3627949,21.026178 15.8186133,18.5084746 12.6914062,18.5084746 C9.56419922,18.5084746 7.02001758,21.026178 7.02001758,24.120839 L7.02001758,25.675661 C7.02001758,26.9571525 7.45720313,28.1388305 8.19041016,29.0846356 L7.29199219,29.0846356 C3.2711543,29.0847458 0,32.3218559 0,36.3008475 L0,50.8983051 C0,51.5067712 0.498527344,52 1.11328125,52 L5.81689453,52 C5.92822266,52 6.03554297,51.9833644 6.13696289,51.9532881 C6.23838281,51.9833644 6.34570312,52 6.45703125,52 L18.9257812,52 C19.5405352,52 20.0390625,51.5067712 20.0390625,50.8983051 L20.0390625,47.1525424 C20.0390625,46.5440763 19.5405352,46.0508475 18.9257812,46.0508475 C18.3110273,46.0508475 17.8125,46.5440763 17.8125,47.1525424 L17.8125,49.7966102 L7.5703125,49.7966102 L7.5703125,37.2431271 C7.5703125,36.634661 7.07178516,36.1414322 6.45703125,36.1414322 C5.84227734,36.1414322 5.34375,36.634661 5.34375,37.2431271 L5.34375,49.7966102 L2.2265625,49.7966102 L2.2265625,36.3008475 C2.2265625,33.5368051 4.49888086,31.2881356 7.29199219,31.2881356 L15.0292969,31.2881356 C15.3356719,31.2881356 15.6131016,31.1655169 15.8143828,30.9674322 C15.8151621,30.966661 15.8158301,30.9662203 15.8166094,30.9655593 L27.3801504,19.5222542 C27.3043359,21.8102542 26.5851563,24.0139746 25.2886289,25.9195763 L18.0024258,36.6278305 C17.8787402,36.8097203 17.8126113,37.024 17.8126113,37.2431271 L17.8126113,38.4491525 C17.8126113,39.0576186 18.3111387,39.5508475 18.9258926,39.5508475 C19.5406465,39.5508475 20.0391738,39.0576186 20.0391738,38.4491525 L20.0391738,37.5793644 L27.1355625,27.1500593 C27.6777305,26.3532034 28.1323945,25.5112881 28.5001113,24.6373136 C28.8678281,25.5112881 29.3223809,26.3532034 29.8646602,27.1500593 L36.9609375,37.5793644 L36.9609375,50.8983051 C36.9609375,51.5067712 37.4594648,52 38.0742188,52 L50.5429688,52 C50.6542969,52 50.7616172,51.9833644 50.8630371,51.9532881 C50.964457,51.9833644 51.0717773,52 51.1831055,52 L55.8867188,52 C56.5014727,52 57,51.5067712 57,50.8983051 L57,36.3008475 C57,32.3218559 53.7288457,29.0847458 49.7080078,29.0847458 Z M16.1362324,25.675661 C16.1362324,27.5554831 14.590998,29.0847458 12.6914062,29.0847458 C10.7918145,29.0847458 9.24658008,27.5554831 9.24658008,25.6757712 L9.24658008,24.1209492 C9.24658008,22.2411271 10.7919258,20.7118644 12.6914062,20.7118644 C14.5908867,20.7118644 16.1362324,22.2411271 16.1362324,24.120839 L16.1362324,25.675661 Z M40.8637676,24.120839 C40.8637676,22.2411271 42.4091133,20.7118644 44.3085938,20.7118644 C46.2080742,20.7118644 47.7534199,22.2411271 47.7534199,24.120839 L47.7534199,25.675661 C47.7534199,27.5554831 46.2081855,29.0847458 44.3085938,29.0847458 C42.409002,29.0847458 40.8637676,27.5554831 40.8637676,25.6757712 L40.8637676,24.120839 Z M54.7734375,49.7966102 L51.65625,49.7966102 L51.65625,41.6440678 C51.65625,41.0356017 51.1577227,40.5423729 50.5429688,40.5423729 C49.9282148,40.5423729 49.4296875,41.0356017 49.4296875,41.6440678 L49.4296875,49.7966102 L39.1875,49.7966102 L39.1875,37.2431271 C39.1875,37.0238898 39.1213711,36.8096102 38.9976855,36.6278305 L31.7114824,25.9196864 C30.4149551,24.0140847 29.6957754,21.8103644 29.6199609,19.5223644 L41.183502,30.9655593 C41.1981973,30.9801017 41.212002,30.9923305 41.2253613,31.0032373 C41.4227461,31.179839 41.6836992,31.2883559 41.9707031,31.2883559 L49.7080078,31.2883559 C52.5011191,31.2883559 54.7734375,33.5370254 54.7734375,36.3010678 L54.7734375,49.7966102 Z" fill-rule="nonzero"></path>
                                    <path d="M51.3299473,36.4638983 C51.1229883,36.2589831 50.8357617,36.1411017 50.5429688,36.1411017 C50.2501758,36.1411017 49.9629492,36.2589831 49.7558789,36.4638983 C49.5488086,36.6688136 49.4296875,36.9530508 49.4296875,37.2427966 C49.4296875,37.5325424 49.5486973,37.8167797 49.7558789,38.0216949 C49.9629492,38.2266102 50.2501758,38.3444915 50.5429688,38.3444915 C50.8357617,38.3444915 51.1229883,38.2266102 51.3299473,38.0216949 C51.5370176,37.8167797 51.65625,37.5325424 51.65625,37.2427966 C51.65625,36.9530508 51.5371289,36.6699153 51.3299473,36.4638983 Z" fill-rule="nonzero"></path>
                                    <path d="M19.7127598,42.2973729 C19.5058008,42.0924576 19.2185742,41.9745763 18.9257812,41.9745763 C18.6329883,41.9745763 18.3457617,42.0924576 18.1386914,42.2973729 C17.9316211,42.5022881 17.8125,42.7865254 17.8125,43.0762712 C17.8125,43.3660169 17.9315098,43.6502542 18.1386914,43.8551695 C18.345873,44.0600847 18.6329883,44.1779661 18.9257812,44.1779661 C19.2185742,44.1779661 19.5058008,44.0600847 19.7127598,43.8551695 C19.9198301,43.6502542 20.0390625,43.3660169 20.0390625,43.0762712 C20.0390625,42.7865254 19.9199414,42.5022881 19.7127598,42.2973729 Z" fill-rule="nonzero"></path>
                                </g>
                            </g>
                        </g>
                    </g>
                </g>
            </g>
        </g>
    </g>
</svg>